<svg id="Слой_2" data-name="Слой 2" xmlns="http://www.w3.org/2000/svg" viewBox="0 0 1000 1000">
  <title>іконки 2 [Восстановлен]</title>
  <g>
    <path d="M34.67,707.23q20.76-20.29,42.39-38.6-7-27.45-12-56.08,23-17.81,46.67-33.3c-2.39-18.68-4.06-37.72-4.88-57.1q25.11-14.73,50.68-26.76c.18-18.8,1.25-37.89,3.35-57.24a540,540,0,0,1,54.16-18.64A487.14,487.14,0,0,1,228,363.65a442.8,442.8,0,0,1,56.66-8.39,408.29,408.29,0,0,1,23.89-52.12,376,376,0,0,1,57.1,4.38,343.84,343.84,0,0,1,35.84-44.71A322.08,322.08,0,0,1,455.39,282c3.52-3,7.13-6,10.84-8.83,1.86-1.43,3.74-2.9,5.64-4.31l5.79-4.17c1.95-1.41,3.92-2.75,5.92-4.08l6.07-4,6.21-3.83c2.09-1.29,4.21-2.57,6.35-3.77a308.53,308.53,0,0,1,46.27,33.78,316.76,316.76,0,0,1,54.26-18.33c1.66,1.82,3.32,3.61,4.94,5.44l4.76,5.55,2.34,2.76,2.29,2.82,4.47,5.62c5.84,7.61,11.32,15.23,16.37,23.06a366.31,366.31,0,0,1,57.17-3.58,406,406,0,0,1,23.26,52.41,454.07,454.07,0,0,1,56.58,9.06,488.16,488.16,0,0,1,12.3,56,542.58,542.58,0,0,1,54,19.18c1.92,19.36,2.82,38.46,2.85,57.27q25.42,12.22,50.47,27.22-1.47,29.09-5.29,57.13,23.54,15.66,46.44,33.65-5.19,28.62-12.37,56.05,21.49,18.46,42.14,38.94" style="fill: none;stroke: #fff;stroke-linecap: round;stroke-linejoin: round;stroke-width: 21px"/>
    <path d="M694.68,415.38c-40.37-31.36-114.76-77.7-208.19-72.83C329.1,350.77,183.35,500.9,121.79,721.29H876.86a696.14,696.14,0,0,0-54.58-140.17c-30.74-58.84-64.54-101.94-91.41-131.38" style="fill: none;stroke: #fff;stroke-linecap: round;stroke-linejoin: round;stroke-width: 15px"/>
    <line x1="198.33" y1="674.15" x2="375.17" y2="674.15" style="fill: none;stroke: #fff;stroke-linecap: round;stroke-linejoin: round;stroke-width: 15px"/>
    <line x1="417.95" y1="674.15" x2="468.93" y2="674.15" style="fill: none;stroke: #fff;stroke-linecap: round;stroke-linejoin: round;stroke-width: 15px"/>
  </g>
</svg>
