<svg xmlns="http://www.w3.org/2000/svg" viewBox="0 0 1000 1000">
  <title>Безымянный-2</title>
  <g id="Слой_4" data-name="Слой 4">
    <g>
      <path d="M512.42,216.05H499.58c-.37-.27-7-5.27-6.3-13.1.55-6.53,5.92-12.16,13.1-13.32A15.84,15.84,0,0,1,523.45,164,15.08,15.08,0,0,1,551,152.65a16,16,0,0,1,14.88-13.55c8.18-.25,15.63,6.52,16.08,15.44,4.34-8.58,14.82-11.27,21.7-6.93,5.73,3.61,8.29,11.64,5.33,18.88A13.87,13.87,0,0,1,626.87,170c4.37,5.9,3,14.89-3.54,19.45a14.91,14.91,0,0,1,10.2,26.65H621" style="fill: none;stroke: #000;stroke-linecap: round;stroke-linejoin: round;stroke-width: 6px"/>
      <path d="M614.54,197.85c-8.5-23-30.93-37-53.31-34.41-18.16,2.1-33.93,14.88-40.86,32.83" style="fill: none;stroke: #000;stroke-linecap: round;stroke-linejoin: round;stroke-width: 6px"/>
      <path d="M621,216.05H512.42" style="fill: none;stroke: #000;stroke-linecap: round;stroke-linejoin: round;stroke-width: 6px"/>
    </g>
    <g>
      <g>
        <path d="M369.85,610.58l11.24-1.37-6.25-3.81,7.4-6.35-9.88.87-.21-7.22-4.93,6.45c-.62.82-2.66,2.26-2.14,3.41a3,3,0,0,0,.57.77A18.82,18.82,0,0,1,369.85,610.58Z" style="fill: none;stroke: #000;stroke-linecap: round;stroke-linejoin: round;stroke-width: 4px"/>
        <path d="M369.18,609.46a20.24,20.24,0,0,0-26.79-10.79c-4.55,1.93-8.21,5.14-12.38,7.65-13.11,7.91-33,10.32-38.45,10.34,0,0-21.55.11-38.81-10.3l-.07,0c-4.17-2.51-7.82-5.72-12.37-7.65a20.17,20.17,0,0,0-28.13,16.06c-1.35,11.07,6.89,21,15.89,26.39a120.64,120.64,0,0,0,41.17,15.08c27.71,4.71,60.25,1.57,84-14.56,9.14-6.21,18.75-14.92,17.24-27A20.36,20.36,0,0,0,369.18,609.46Z" style="fill: none;stroke: #000;stroke-linecap: round;stroke-linejoin: round;stroke-width: 4px"/>
        <path d="M218.83,602l-6-9.62-.83,7.28-8.87-4,5,8.59-6.47,3.23,7.93,1.76c1,.22,3.17,1.46,4,.51a3.1,3.1,0,0,0,.45-.84A18.89,18.89,0,0,1,218.83,602Z" style="fill: none;stroke: #000;stroke-linecap: round;stroke-linejoin: round;stroke-width: 4px"/>
        <line x1="252.68" y1="606.32" x2="246.05" y2="620.38" style="fill: none;stroke: #000;stroke-linecap: round;stroke-linejoin: round;stroke-width: 4px"/>
        <path d="M271.71,614.21c-1.56,5.37-3,10.23-4.52,15.61" style="fill: none;stroke: #000;stroke-linecap: round;stroke-linejoin: round;stroke-width: 4px"/>
        <path d="M291.8,633.24l-.25-16.58" style="fill: none;stroke: #000;stroke-linecap: round;stroke-linejoin: round;stroke-width: 4px"/>
        <line x1="311.92" y1="613.49" x2="316.65" y2="629.99" style="fill: none;stroke: #000;stroke-linecap: round;stroke-linejoin: round;stroke-width: 4px"/>
        <line x1="337.85" y1="620.84" x2="330.01" y2="606.32" style="fill: none;stroke: #000;stroke-linecap: round;stroke-linejoin: round;stroke-width: 4px"/>
      </g>
      <path d="M222.7,625.81a93.24,93.24,0,0,0,36.9,18.46" style="fill: none;stroke: #000;stroke-linecap: round;stroke-linejoin: round;stroke-width: 4px"/>
      <path d="M267.61,646.69a27,27,0,0,0,11.92,1.14" style="fill: none;stroke: #000;stroke-linecap: round;stroke-linejoin: round;stroke-width: 4px"/>
    </g>
    <path d="M268.66,127.85s-4.3,12.32,5.9,13.11,9.76-8.17,8.67-12.35S273,119.71,268.66,127.85Z" style="fill: none;stroke: #000;stroke-linecap: round;stroke-linejoin: round;stroke-width: 4px"/>
    <path d="M282.51,126.76A5.17,5.17,0,0,1,289,127c2.85,2.47,3.48,8.31.93,11.15-1.81,2-5.51,2.8-7.78,1.06" style="fill: none;stroke: #000;stroke-linecap: round;stroke-linejoin: round;stroke-width: 4px"/>
    <path d="M286.61,124.72a5.37,5.37,0,0,1,2.31-3.63,15.77,15.77,0,0,1,4-1.91" style="fill: none;stroke: #000;stroke-linecap: round;stroke-linejoin: round;stroke-width: 4px"/>
    <path d="M253.86,128.31s-13.09,3.59-7.61,10,34.76,8,43.51,5.83,17.51-5.54,2-13.09" style="fill: none;stroke: #000;stroke-linecap: round;stroke-linejoin: round;stroke-width: 4px"/>
    <path d="M245.19,133.87a51.16,51.16,0,0,0-3.43,16.41,11.49,11.49,0,0,0,1.19,6.17c1.35,2.47,4,4,6.65,4.83s3.77.55,8.21,1.86c1.51.44,2.72.88,3.51,1.18" style="fill: none;stroke: #000;stroke-linecap: round;stroke-linejoin: round;stroke-width: 4px"/>
    <path d="M261.32,164.32a59,59,0,0,0,14.62,2.84,17.36,17.36,0,0,0,2.61.11c2.84-.19,3.95-1.25,6.29-2.07,4.58-1.6,6.2.41,10.3-1.57a15.18,15.18,0,0,0,3-2c4-3.53,4.66-13.56,1.48-25.16" style="fill: none;stroke: #000;stroke-linecap: round;stroke-linejoin: round;stroke-width: 4px"/>
    <path d="M248.26,160.7a8.75,8.75,0,0,0-8.34,11c.52,2.67,1.7,2.74,2,5.25.32,2.79-1,3.58-.89,6.25a9.84,9.84,0,0,0,2.74,5.91c2.65,2.73,6.33,3.21,12.58,3.21h8.5a60.07,60.07,0,0,1,7.59.32c2.22.29,4.4.83,6.64,1a38.83,38.83,0,0,0,7.38-.38,19.35,19.35,0,0,0,5.17-1c1.21-.47,4.91-2.21,7.33-8.63" style="fill: none;stroke: #000;stroke-linecap: round;stroke-linejoin: round;stroke-width: 4px"/>
    <path d="M246,190.88a7.75,7.75,0,0,0-2.84,4.66c-.18,1-.17,1.93-.36,2.88-.23,1.16-.75,2.24-1.05,3.39-1.21,4.54,1.21,9.47,4.92,12.38s8.44,4.11,13.1,4.78c11.67,1.69,23.54.45,35.27-.79a2,2,0,0,0,1.51-.62" style="fill: none;stroke: #000;stroke-linecap: round;stroke-linejoin: round;stroke-width: 4px"/>
    <path d="M247.47,207.23a14.94,14.94,0,0,0,8,5.53,37.06,37.06,0,0,0,9.79,1.35" style="fill: none;stroke: #000;stroke-linecap: round;stroke-linejoin: round;stroke-width: 4px"/>
    <path d="M245.78,183.91a7.25,7.25,0,0,0,4,2.91,20.88,20.88,0,0,0,5,.8l8.22.67" style="fill: none;stroke: #000;stroke-linecap: round;stroke-linejoin: round;stroke-width: 4px"/>
    <path d="M302.94,177.81a22.89,22.89,0,0,0-6.27,12c-1.27,7.72,2.27,14.61,5.54,21,1.67,3.26,2.51,4.89,3.63,6.11,9.57,10.44,30.74,3.94,34.23,2.87,6.39-2,14.84-4.54,19.45-12.53a26.18,26.18,0,0,0,3.26-12c.1-2.55.31-8.08-3-13.45-4.85-7.9-13.71-9.6-15.39-9.89" style="fill: none;stroke: #000;stroke-linecap: round;stroke-linejoin: round;stroke-width: 4px"/>
    <path d="M314.61,180.09a10.58,10.58,0,0,0-.63,8.29,9.37,9.37,0,0,0,6.83,6.42,10.24,10.24,0,0,0,6.18-1c3.72-1.79,6.82-5.69,6.19-9.77a11.6,11.6,0,0,0-3.91-6.6C324.74,174.06,317.38,175,314.61,180.09Z" style="fill: none;stroke: #000;stroke-linecap: round;stroke-linejoin: round;stroke-width: 4px"/>
    <path d="M296.43,192.12c0,9.12-.08,15.71-.29,19.14a12.82,12.82,0,0,0,.4,4.41,15.48,15.48,0,0,0,2.24,4.49c3.05,5.07,2.31,6.14,4.4,8.56,1.71,2,3.64,2.81,5.55,3.8,15.26,7.88,32.1,3,32.1,3,5.28-1.51,19.08-5.48,24-17.4,2.48-6,1.75-11.64.73-19.6-1-7.64-1.86-12.88-5.94-18A27.24,27.24,0,0,0,345,171.43" style="fill: none;stroke: #000;stroke-linecap: round;stroke-linejoin: round;stroke-width: 4px"/>
    <path d="M314.8,142s-11.59,23.37,8.09,23.71C322.89,165.69,339.41,157.84,314.8,142Z" style="fill: none;stroke: #000;stroke-linecap: round;stroke-linejoin: round;stroke-width: 4px"/>
    <path d="M322.89,165.69s3.36,3,2.72,9.7" style="fill: none;stroke: #000;stroke-linecap: round;stroke-linejoin: round;stroke-width: 4px"/>
    <path d="M326.44,175.31c-.13-1-.84-7.93,3.92-12.77,4.93-5,13.7-5.75,20.86-1.16a9.71,9.71,0,0,0-4.22,3.21,13.44,13.44,0,0,0-1.77,3.94c-1,2.95-.82,3.61-1.42,5.23-.76,2-2.45,4.62-4.44,5.69-3.13,1.68-7.87.54-11.52-2.92" style="fill: none;stroke: #000;stroke-linecap: round;stroke-linejoin: round;stroke-width: 4px"/>
    <path d="M283.45,126.18s-12.25-22.62,22.85-11.5c0,0,2.77,12.77-15,13.88" style="fill: none;stroke: #000;stroke-linecap: round;stroke-linejoin: round;stroke-width: 4px"/>
    <path d="M251.54,125.73s3.34,6.17,15,4.34l.89-.15s2.39-8.35,11.41-5.74c0,0,3.54-3.64-2.28-4.67C276.55,119.51,280.07,100.22,251.54,125.73Z" style="fill: none;stroke: #000;stroke-linecap: round;stroke-linejoin: round;stroke-width: 4px"/>
    <path d="M322.89,175.31s-.38-16.26-21.53-2.62c0,0,1.14,7.29,10.78,9.21" style="fill: none;stroke: #000;stroke-linecap: round;stroke-linejoin: round;stroke-width: 4px"/>
    <path d="M298.81,160.92a13.75,13.75,0,0,1,1.73,1.4c2,2,2.51,4.93,3,7.69" style="fill: none;stroke: #000;stroke-linecap: round;stroke-linejoin: round;stroke-width: 4px"/>
    <path d="M306.6,210.81a19.08,19.08,0,0,0,6.87,5.54,19.53,19.53,0,0,0,12.41,1.33" style="fill: none;stroke: #000;stroke-linecap: round;stroke-linejoin: round;stroke-width: 4px"/>
    <g>
      <path d="M160.07,342.75A83.86,83.86,0,0,0,157.12,357,24.67,24.67,0,0,0,147,352.7,24.68,24.68,0,0,1,160.07,342.75Z" style="fill: none;stroke: #000;stroke-linecap: round;stroke-linejoin: round;stroke-width: 4px"/>
      <path d="M188.37,353a24.7,24.7,0,0,0-11.78,6.59,58,58,0,0,1-3.81-17.44c.58.13,1.16.27,1.73.44A24.66,24.66,0,0,1,185,348.8,25.09,25.09,0,0,1,188.37,353Z" style="fill: none;stroke: #000;stroke-linecap: round;stroke-linejoin: round;stroke-width: 4px"/>
      <path d="M192.23,403.12c0-.59,0-1.16-.07-1.74a149.21,149.21,0,0,1-47.9,1.44l-1.32-.17c0,.16,0,.31,0,.47V444.2a24.65,24.65,0,0,0,49.3,0Z" style="fill: none;stroke: #000;stroke-linecap: round;stroke-linejoin: round;stroke-width: 4px"/>
      <path d="M192.16,383.86a148.92,148.92,0,0,1-47.9,1.43l-1.32-.17a24.59,24.59,0,0,1,19-23.51l7-.62,5.59.95A24.46,24.46,0,0,1,185,368.17c.17.16.33.33.48.49s.53.57.78.87c.07.07.14.16.2.23l.34.42.29.36.1.13.24.33a24.05,24.05,0,0,1,2.47,4.15c.1.2.19.41.28.62s.19.44.28.66c.18.45.34.9.49,1.36l.18.54a2.29,2.29,0,0,1,.08.28c.07.21.13.43.18.64s.13.51.19.75.11.51.16.76l.12.63.12.77c0,.1,0,.2,0,.31s0,.4.07.6S192.14,383.59,192.16,383.86Z" style="fill: none;stroke: #000;stroke-linecap: round;stroke-linejoin: round;stroke-width: 4px"/>
      <path d="M161.9,361.61a24.59,24.59,0,0,0-19,23.51A114.18,114.18,0,0,1,131.25,383,72.79,72.79,0,0,1,118,378.58a24.64,24.64,0,0,1,21.38-26.05,25.41,25.41,0,0,1,3.24-.21,24.49,24.49,0,0,1,14.49,4.73Z" style="fill: none;stroke: #000;stroke-linecap: round;stroke-linejoin: round;stroke-width: 4px"/>
      <path d="M142.93,403.12c0-.16,0-.31,0-.47-8.52-1.14-17.16-3-24.91-6.55,0,.53.08,1.07.15,1.6l5.35,40.73a24.66,24.66,0,0,0,25,21.44,24.61,24.61,0,0,1-5.61-15.67Z" style="fill: none;stroke: #000;stroke-linecap: round;stroke-linejoin: round;stroke-width: 4px"/>
      <path d="M218.62,375a105.71,105.71,0,0,1-17.19,6.6c-3.05.88-6.15,1.64-9.27,2.28,0-.27,0-.53-.07-.79s0-.4-.07-.6,0-.21,0-.31l-.12-.77-.12-.63c-.05-.25-.1-.51-.16-.76s-.12-.5-.19-.75-.11-.43-.18-.64a2.29,2.29,0,0,0-.08-.28c0-.18-.12-.36-.17-.54h0c-.15-.46-.31-.91-.49-1.36-.09-.22-.18-.44-.28-.66s-.18-.42-.28-.62a24.05,24.05,0,0,0-2.47-4.15l-.24-.33-.1-.13-.29-.36-.34-.42c-.06-.07-.13-.16-.2-.23q-.37-.45-.78-.87c-.15-.16-.31-.33-.48-.49a24.46,24.46,0,0,0-10.49-6.23l2.08-2.37A24.7,24.7,0,0,1,188.37,353a24.06,24.06,0,0,1,5.65-.66,25.41,25.41,0,0,1,3.24.21A24.65,24.65,0,0,1,218.62,375Z" style="fill: none;stroke: #000;stroke-linecap: round;stroke-linejoin: round;stroke-width: 4px"/>
      <path d="M192.16,401.38c0,.58.07,1.15.07,1.74V444.2a24.53,24.53,0,0,1-5.56,15.58,24.63,24.63,0,0,0,26.47-21.35l5.35-40.73a24.55,24.55,0,0,0,.13-5.2A109.48,109.48,0,0,1,192.16,401.38Z" style="fill: none;stroke: #000;stroke-linecap: round;stroke-linejoin: round;stroke-width: 4px"/>
      <path d="M158.24,357.91l.35.29c.35.3.69.6,1,.92l.08.07q.51.49,1,1l.26.28c.33.36.65.73,1,1.12a24.67,24.67,0,0,1,5.68-.66h.76c.68,0,1.35.07,2,.14h0c.43.05.85.11,1.28.18l.17,0c.42.07.83.15,1.24.25l.21.05c.41.09.83.2,1.23.32.29-.37.59-.73.89-1.08l.24-.27c.31-.35.62-.69,1-1h0a58,58,0,0,1-3.81-17.44C172,319.29,193.2,318.5,193.2,318.5V315c-19.93-3.57-29.09,14.22-33.13,27.77A83.86,83.86,0,0,0,157.12,357h0l.18.14Z" style="fill: none;stroke: #000;stroke-linecap: round;stroke-linejoin: round;stroke-width: 4px"/>
      <path d="M173.28,361.62c.41.09.83.2,1.23.32C174.11,361.82,173.69,361.71,173.28,361.62Z" style="fill: none;stroke: #000;stroke-linecap: round;stroke-linejoin: round;stroke-width: 4px"/>
      <path d="M170.38,361.11c.43.05.85.11,1.28.18C171.23,361.22,170.81,361.16,170.38,361.11Z" style="fill: none;stroke: #000;stroke-linecap: round;stroke-linejoin: round;stroke-width: 4px"/>
      <path d="M171.83,361.32c.42.07.83.15,1.24.25C172.66,361.47,172.25,361.39,171.83,361.32Z" style="fill: none;stroke: #000;stroke-linecap: round;stroke-linejoin: round;stroke-width: 4px"/>
      <path d="M170.35,361.1c-.66-.07-1.33-.12-2-.14l.58,0C169.4,361,169.88,361.05,170.35,361.1Z" style="fill: none;stroke: #000;stroke-linecap: round;stroke-linejoin: round;stroke-width: 4px"/>
      <path d="M159.69,359.19q.51.49,1,1Q160.2,359.69,159.69,359.19Z" style="fill: none;stroke: #000;stroke-linecap: round;stroke-linejoin: round;stroke-width: 4px"/>
      <path d="M159.61,359.12c-.33-.32-.67-.62-1-.92C158.94,358.5,159.28,358.8,159.61,359.12Z" style="fill: none;stroke: #000;stroke-linecap: round;stroke-linejoin: round;stroke-width: 4px"/>
      <path d="M161.9,361.61c-.31-.39-.63-.76-1-1.12C161.27,360.85,161.59,361.22,161.9,361.61Z" style="fill: none;stroke: #000;stroke-linecap: round;stroke-linejoin: round;stroke-width: 4px"/>
      <path d="M158.24,357.91l-.94-.73Z" style="fill: none;stroke: #000;stroke-linecap: round;stroke-linejoin: round;stroke-width: 4px"/>
      <path d="M175.64,360.59c.31-.35.62-.69,1-1h0C176.26,359.9,176,360.24,175.64,360.59Z" style="fill: none;stroke: #000;stroke-linecap: round;stroke-linejoin: round;stroke-width: 4px"/>
      <path d="M174.51,361.94c.29-.37.59-.73.89-1.08C175.1,361.21,174.8,361.57,174.51,361.94Z" style="fill: none;stroke: #000;stroke-linecap: round;stroke-linejoin: round;stroke-width: 4px"/>
      <path d="M158.59,358.2l-.35-.29Z" style="fill: none;stroke: #000;stroke-linecap: round;stroke-linejoin: round;stroke-width: 4px"/>
      <path d="M160.94,360.49l-.26-.28Z" style="fill: none;stroke: #000;stroke-linecap: round;stroke-linejoin: round;stroke-width: 4px"/>
      <path d="M159.61,359.12l.08.07Z" style="fill: none;stroke: #000;stroke-linecap: round;stroke-linejoin: round;stroke-width: 4px"/>
      <path d="M157.12,357h0l.16.13Z" style="fill: none;stroke: #000;stroke-linecap: round;stroke-linejoin: round;stroke-width: 4px"/>
      <path d="M160.94,360.49l-.26-.28q-.48-.52-1-1l-.08-.07c-.33-.32-.67-.62-1-.92l-.35-.29-.94-.73-.16-.13,4.76,4.56C161.59,361.22,161.27,360.85,160.94,360.49Z" style="fill: none;stroke: #000;stroke-linecap: round;stroke-linejoin: round;stroke-width: 4px"/>
      <path d="M167.58,361h0Z" style="fill: none;stroke: #000;stroke-linecap: round;stroke-linejoin: round;stroke-width: 4px"/>
      <path d="M168.34,361h-.76a24.67,24.67,0,0,0-5.68.66l7-.62Z" style="fill: none;stroke: #000;stroke-linecap: round;stroke-linejoin: round;stroke-width: 4px"/>
      <path d="M173.07,361.57l.21.05Z" style="fill: none;stroke: #000;stroke-linecap: round;stroke-linejoin: round;stroke-width: 4px"/>
      <path d="M171.66,361.29l.17,0Z" style="fill: none;stroke: #000;stroke-linecap: round;stroke-linejoin: round;stroke-width: 4px"/>
      <path d="M170.35,361.1h0Z" style="fill: none;stroke: #000;stroke-linecap: round;stroke-linejoin: round;stroke-width: 4px"/>
      <path d="M174.51,361.94c-.4-.12-.82-.23-1.23-.32l-.21-.05c-.41-.1-.82-.18-1.24-.25l-.17,0c-.43-.07-.85-.13-1.28-.18h0c-.47-.05-.95-.09-1.43-.11Z" style="fill: none;stroke: #000;stroke-linecap: round;stroke-linejoin: round;stroke-width: 4px"/>
      <path d="M175.4,360.86l.24-.27Z" style="fill: none;stroke: #000;stroke-linecap: round;stroke-linejoin: round;stroke-width: 4px"/>
      <path d="M175.64,360.59l-.24.27c-.3.35-.6.71-.89,1.08l2.08-2.37C176.26,359.9,176,360.24,175.64,360.59Z" style="fill: none;stroke: #000;stroke-linecap: round;stroke-linejoin: round;stroke-width: 4px"/>
      <path d="M203.75,380.88A47.14,47.14,0,0,1,211.4,386a49.46,49.46,0,0,1,7.27,7.25,49.21,49.21,0,0,0-14.92-12.36Z" style="fill: none;stroke: #000;stroke-linecap: round;stroke-linejoin: round;stroke-width: 4px"/>
      <path d="M131.25,383A32.68,32.68,0,0,0,118,396.1" style="fill: none;stroke: #000;stroke-linecap: round;stroke-linejoin: round;stroke-width: 4px"/>
      <path d="M132.75,400.87a75.94,75.94,0,0,1,69.39-2" style="fill: none;stroke: #000;stroke-linecap: round;stroke-linejoin: round;stroke-width: 4px"/>
    </g>
    <path d="M151.92,448.32a20.61,20.61,0,0,0,6.56,8.2,17.83,17.83,0,0,0,8.8,3.35" style="fill: none;stroke: #000;stroke-linecap: round;stroke-linejoin: round;stroke-width: 4px"/>
    <path d="M175.12,459.47a12,12,0,0,0,4-2.25,12.17,12.17,0,0,0,2.64-3.13" style="fill: none;stroke: #000;stroke-linecap: round;stroke-linejoin: round;stroke-width: 4px"/>
    <path d="M130.1,438.78c.4,2.29.64,6.36,7.18,9.5" style="fill: none;stroke: #000;stroke-linecap: round;stroke-linejoin: round;stroke-width: 4px"/>
    <circle cx="168.33" cy="395.74" r="109.39" style="fill: none;stroke: #000;stroke-linecap: round;stroke-linejoin: round;stroke-width: 10px"/>
    <circle cx="291.35" cy="620.38" r="109.39" style="fill: none;stroke: #000;stroke-linecap: round;stroke-linejoin: round;stroke-width: 10px"/>
    <circle cx="300.15" cy="170.1" r="109.39" style="fill: none;stroke: #000;stroke-linecap: round;stroke-linejoin: round;stroke-width: 10px"/>
    <circle cx="566.25" cy="181.9" r="109.39" style="fill: none;stroke: #000;stroke-linecap: round;stroke-linejoin: round;stroke-width: 10px"/>
    <polyline points="361.86 261.45 422.45 403.41 281.05 403.41" style="fill: none;stroke: #000;stroke-linecap: round;stroke-linejoin: round;stroke-width: 10px"/>
    <line x1="422.45" y1="403.41" x2="359.43" y2="534.81" style="fill: none;stroke: #000;stroke-linecap: round;stroke-linejoin: round;stroke-width: 10px"/>
    <line x1="464.93" y1="316.23" x2="487.57" y2="261.45" style="fill: none;stroke: #000;stroke-linecap: round;stroke-linejoin: round;stroke-width: 10px"/>
    <line x1="484.67" y1="466.45" x2="613.71" y2="466.45" style="fill: none;stroke: #000;stroke-linecap: round;stroke-linejoin: round;stroke-width: 10px"/>
    <line x1="484.67" y1="547.8" x2="613.71" y2="547.8" style="fill: none;stroke: #000;stroke-linecap: round;stroke-linejoin: round;stroke-width: 10px"/>
    <line x1="484.67" y1="629.14" x2="613.71" y2="629.14" style="fill: none;stroke: #000;stroke-linecap: round;stroke-linejoin: round;stroke-width: 10px"/>
    <line x1="478.48" y1="728.62" x2="692.46" y2="728.62" style="fill: none;stroke: #000;stroke-linecap: round;stroke-linejoin: round;stroke-width: 10px"/>
    <line x1="489.61" y1="853.84" x2="703.59" y2="853.84" style="fill: none;stroke: #000;stroke-linecap: round;stroke-linejoin: round;stroke-width: 10px"/>
  </g>
  <g id="Слой_6" data-name="Слой 6">
    <path d="M830,758.8s-82.84-76-105.54-95.33-53.33-2.27-48.79,32.6,91.92,110.39,91.92,110.39c-20.43,30.64-6.81,114.64-6.81,114.64s-273.49-1.16-304.13,0-35.18-31.77-35.18-31.77V744q.48-180.43.94-360.86" style="fill: none;stroke: #000;stroke-linecap: round;stroke-linejoin: round;stroke-width: 20px"/>
    <line x1="421.51" y1="831.42" x2="758.85" y2="831.42" style="fill: none;stroke: #000;stroke-linecap: round;stroke-linejoin: round;stroke-width: 20px"/>
    <circle cx="595.14" cy="877.95" r="15.89"/>
    <circle cx="692.2" cy="457.86" r="24.24" style="fill: none;stroke: #000;stroke-linecap: round;stroke-linejoin: round;stroke-width: 10px"/>
    <circle cx="692.2" cy="544.3" r="24.24" style="fill: none;stroke: #000;stroke-linecap: round;stroke-linejoin: round;stroke-width: 10px"/>
    <circle cx="692.2" cy="630.75" r="24.24" style="fill: none;stroke: #000;stroke-linecap: round;stroke-linejoin: round;stroke-width: 10px"/>
    <path d="M464.93,316.23H728.27a42.48,42.48,0,0,1,42.48,42.48v24.47a0,0,0,0,1,0,0H422.45a0,0,0,0,1,0,0V358.71A42.48,42.48,0,0,1,464.93,316.23Z" style="fill: none;stroke: #000;stroke-linecap: round;stroke-linejoin: round;stroke-width: 20px"/>
    <line x1="770.75" y1="383.18" x2="770.75" y2="704.72" style="fill: none;stroke: #000;stroke-linecap: round;stroke-linejoin: round;stroke-width: 20px"/>
    <path d="M770.75,579.5c18.44,23.83,117.16,115.75,122.84,131.63s0,210,0,210" style="fill: none;stroke: #000;stroke-linecap: round;stroke-linejoin: round;stroke-width: 20px"/>
  </g>
</svg>
