<svg id="Слой_2" data-name="Слой 2" xmlns="http://www.w3.org/2000/svg" viewBox="0 0 1000 1000">
  <title>іконки</title>
  <g>
    <g>
      <g>
        <path d="M958.39,490.48c-3-9.48-7.78-17.55-15.3-20.6-25.49-10.32-59.82,26.34-75,43.11A158.3,158.3,0,0,0,840.38,683.2c7,16,22.28,48.53,43.12,52.07L248.11,722.65c-7.08-11.29-41-67.89-24.36-139.64a172.9,172.9,0,0,1,17.63-45.62c32.4-57.66,89-81.51,95.56-84.16l305.78,3.69,52.72.63q13.23.19,26.48.33,20.63.25,41.28.5h.52l184.43,2.22A246.8,246.8,0,0,1,958.39,490.48Z" style="fill: none;stroke: #fff;stroke-linecap: round;stroke-linejoin: round;stroke-width: 15px"/>
        <path d="M964.56,593A243.29,243.29,0,0,1,943,662.58a257.27,257.27,0,0,1-29.5,47.09s-.05.08-.08.1a247.58,247.58,0,0,1-23.23,25.63l-6.64-.13c-20.84-3.54-36.15-36-43.12-52.07A158.3,158.3,0,0,1,868.14,513c15.13-16.77,49.46-53.43,75-43.11,7.52,3.05,12.29,11.12,15.3,20.6a1.57,1.57,0,0,1,.09.32c.65,2.34,1.27,4.76,1.89,7.27a9.31,9.31,0,0,1,.27,1.25A246.36,246.36,0,0,1,964.56,593Z" style="fill: none;stroke: #fff;stroke-linecap: round;stroke-linejoin: round;stroke-width: 15px"/>
        <path d="M913.1,580.07c4.71,15.85,9.61,42.42-3.08,64.14-14.52,24.89-30.72,7.12-33-14.36-3.39-31.09,6.61-64.29,27.37-87.87,23.85-27.05,44.45-8.45,54.3,19.72,8.08,23.23,3.49,43.73-1,62.52-.06.17-.09.37-.14.54A153.47,153.47,0,0,1,943,662.58c-7.17,13.37-16.68,27.72-29.5,47.09,0,0-.05.08-.08.1-15,22.67-18.91,25.07-23.23,25.63a21.37,21.37,0,0,1-6.64-.13" style="fill: none;stroke: #fff;stroke-linecap: round;stroke-linejoin: round;stroke-width: 15px"/>
        <path d="M958.39,490.48a1.57,1.57,0,0,1,.09.32,74.45,74.45,0,0,1,1.89,7.27,9.31,9.31,0,0,1,.27,1.25c3.14,15.37,2.82,31.5,2.7,35.34" style="fill: none;stroke: #fff;stroke-linecap: round;stroke-linejoin: round;stroke-width: 15px"/>
      </g>
      <g>
        <path d="M778,404.13A245.57,245.57,0,0,1,771,436.05q-3.47,11.76-7.75,22.33-20.62-.27-41.28-.5-13.23-.15-26.48-.33l-52.72-.63-305.78-3.69c-6.54,2.65-63.16,26.5-95.56,84.16l-179.8-3.57c-7.08-11.29-41-67.89-24.36-139.64,21.11-91.09,105.1-126.55,113.19-129.78l611.21,7.38A251.77,251.77,0,0,1,772,302s0,.1,0,.15c.74,2.76,1.47,5.63,2.16,8.61a.56.56,0,0,0,0,.1A246.32,246.32,0,0,1,778,404.13Z" style="fill: none;stroke: #fff;stroke-linecap: round;stroke-linejoin: round;stroke-width: 15px"/>
        <path d="M726.57,391.21c4.69,15.86,9.59,42.44-3.09,64.17-.51.88-1,1.72-1.56,2.5" style="fill: none;stroke: #fff;stroke-linecap: round;stroke-linejoin: round;stroke-width: 15px"/>
        <path d="M763.72,458.39A151.77,151.77,0,0,0,771,436.05c0-.22.11-.46.16-.69,4.49-18.79,9.08-39.29,1-62.52-9.85-28.17-30.44-46.74-54.3-19.69-20.73,23.55-30.73,56.76-27.36,87.85a44.79,44.79,0,0,0,5,16.55" style="fill: none;stroke: #fff;stroke-linecap: round;stroke-linejoin: round;stroke-width: 15px"/>
        <path d="M642.72,456.92a156.85,156.85,0,0,1-1.55-41.68,161,161,0,0,1,40.44-91.1c15.1-16.78,49.43-53.41,74.92-43.09C764.15,284.15,769,292.34,772,302c0,0,0,.1,0,.15.86,2.79,1.57,5.68,2.16,8.61a.56.56,0,0,0,0,.1c3,15.25,2.73,31.18,2.63,35" style="fill: none;stroke: #fff;stroke-linecap: round;stroke-linejoin: round;stroke-width: 15px"/>
      </g>
    </g>
    <line x1="366.37" y1="490.48" x2="545.47" y2="490.48" style="fill: none;stroke: #fff;stroke-linecap: round;stroke-linejoin: round;stroke-width: 15px"/>
    <line x1="588.81" y1="490.48" x2="640.44" y2="490.48" style="fill: none;stroke: #fff;stroke-linecap: round;stroke-linejoin: round;stroke-width: 15px"/>
  </g>
</svg>
