<svg id="Слой_2" data-name="Слой 2" xmlns="http://www.w3.org/2000/svg" viewBox="0 0 1000 1000">
  <title>іконки 2 [Восстановлен]</title>
  <g>
    <g>
      <path d="M406.38,156.86c-38.83,35-11.69,57.22,18.85,88,32.49,32.74,24.87,62.37-9.09,92.31" style="fill: none;stroke: #fff;stroke-linecap: round;stroke-linejoin: round;stroke-width: 15px"/>
      <path d="M469.64,156.86c-38.83,35-11.69,57.22,18.85,88,32.5,32.74,24.87,62.37-9.08,92.31" style="fill: none;stroke: #fff;stroke-linecap: round;stroke-linejoin: round;stroke-width: 15px"/>
      <path d="M532.91,156.86c-38.83,35-11.69,57.22,18.85,88,32.49,32.74,24.87,62.37-9.09,92.31" style="fill: none;stroke: #fff;stroke-linecap: round;stroke-linejoin: round;stroke-width: 15px"/>
    </g>
    <g>
      <g>
        <path d="M35.34,652.88c4.47-10,10.11-14.86,14.1-17.43,12.84-8.28,24.46-1.68,39.69-12.1,4.48-3.06,8.08-7.23,12.39-10.53,11.73-9,27.29-10.64,42-12l99.59-9.13c12.82-1.17,25.82-2.34,38.48,0s24.76,8.14,37.66,8.85c17.8,1,35-7.85,52.78-7.45,9,.2,17.81,2.77,26.71,4.25,16.93,2.83,30,2,38.92,1.94,71.4-.55,107.1-.83,108.19-.86,26.28-.82,33.3-1.38,44.72,2.33,17.34,5.62,18.27,12.47,42.84,22.45,17.17,7,22.32,5.9,35.91,13.27A110.11,110.11,0,0,1,696.12,657" style="fill: none;stroke: #fff;stroke-linecap: round;stroke-linejoin: round;stroke-width: 15px"/>
        <path d="M447.05,738.43c-12.71-2.34-24.76-8.14-37.66-8.85-17.8-1-35,7.85-52.78,7.45-9-.2-17.8-2.77-26.71-4.26-12.83-2.14-25.91-2-38.91-1.93-35.94.28-72,4.72-107.89,1.94-37.1-2.88-67-18.51-101.58-30a130.25,130.25,0,0,1-49-29.68Q35,661.54,37.42,650" style="fill: none;stroke: #fff;stroke-linecap: round;stroke-linejoin: round;stroke-width: 15px"/>
        <path d="M694.68,770.76a25.62,25.62,0,0,1-1.41,10.82c-5.12,13.95-21.33,16.89-44.53,28.74-21.41,10.93-17.81,14.51-33.35,20.56-16.71,6.51-37.72,7.68-55.43,9.45-36.45,3.63-73.16,2.95-109.72,2.28-51.9-1-103.77-3.29-155.67-4.19-34.65-.6-71.19,5.35-106.64,4.19-19.06-.63-38.17-3.22-56.09-10-16.66-6.33-30.17-18.36-46.8-24.48-18.57-6.83-37.91-12.91-52.53-26.93V673.12" style="fill: none;stroke: #fff;stroke-linecap: round;stroke-linejoin: round;stroke-width: 15px"/>
        <path d="M693.14,673.72l1.77,95" style="fill: none;stroke: #fff;stroke-linecap: round;stroke-linejoin: round;stroke-width: 15px"/>
      </g>
      <line x1="148.9" y1="638.22" x2="212.93" y2="702.24" style="fill: none;stroke: #fff;stroke-linecap: round;stroke-linejoin: round;stroke-width: 15px"/>
      <line x1="238.34" y1="628.28" x2="298.67" y2="688.61" style="fill: none;stroke: #fff;stroke-linecap: round;stroke-linejoin: round;stroke-width: 15px"/>
      <line x1="334.86" y1="626.86" x2="400.97" y2="692.96" style="fill: none;stroke: #fff;stroke-linecap: round;stroke-linejoin: round;stroke-width: 15px"/>
      <line x1="421.46" y1="626.86" x2="496.01" y2="701.42" style="fill: none;stroke: #fff;stroke-linecap: round;stroke-linejoin: round;stroke-width: 15px"/>
      <line x1="506.63" y1="628.28" x2="566.27" y2="687.92" style="fill: none;stroke: #fff;stroke-linecap: round;stroke-linejoin: round;stroke-width: 15px"/>
    </g>
    <path d="M447.05,738.43a297,297,0,0,0,41.1,4.11c14.37.42,27.8-.79,54.65-3.23a61.9,61.9,0,0,0,9.51-1.4c7.66-1.79,11.68-4.69,32.81-8.63,19.68-3.67,29.68-3.66,42-12a31.82,31.82,0,0,0,3.16-2.38l1.09-1c1.27-1.17,2.18-2.13,2.41-2.36l0-.06c1.67-1.77,36.07-19.39,49.53-33.57A49,49,0,0,0,694,660" style="fill: none;stroke: #fff;stroke-linecap: round;stroke-linejoin: round;stroke-width: 15px"/>
    <path d="M547,592.79c-4-3.81-8.12-7.78-10.18-12.9-4.62-11.45,6.75-17.79,11.44-26.8,5.14-9.88,6.7-21.67,15.13-29.66,2.09-2,4.63-3.77,5.55-6.51s0-5.44-.23-8.18c-1.08-10.37,7-20.85,17.32-22.42,2.87-.44,5.94-.3,8.49-1.7,2.15-1.17,3.61-3.27,5.06-5.24,7.82-10.64,17.75-16.93,27.27-25.56,7.53-6.82,9.3-18.58,19.16-23.68,6.66-3.44,10.54.61,16.44.08s10.47-5.48,17.69-6.54c5.89-.87,11.88.1,17.76,1.07l48.22,7.94a8.38,8.38,0,0,0,4.22,0c1.55-.55,2.62-1.92,3.71-3.15,7.32-8.24,21.64-11.41,29.14-3.33-3.35-3.61,16.56-8.66,18.64-8.39,8.07,1.05,14.62,7.48,19,13.86-1.16-1.83,13.39-4.53,15.25-4.13,9.76,2.09,13,13,24.7,12.91,5.12,0,13.81-2.79,17.69,1.93,1.1,1.34,1.53,3.08,2.36,4.59,4.55,8.22,18.47,6.42,23.49,14.37s13.37,1.61,20.2,4.22c6.48,2.47,6.81,8.26,10.81,12.78,4.44,5,12,7.65,14.68,14.12s-1.46,13.86-5.48,19.76c5.82,0,9.51,6.34,10.7,12s1.29,12,5,16.49c3.49,4.17,10.13,7.1,9.44,12.5-.42,3.27-3.7,5.9-3.3,9.18.44,3.56,4.79,5.11,6.7,8.15,3.06,4.85-1,10.89-2.12,16.51-3.11,15.54,14.09,27.21,1.44,41.95-5.18,6-12.41,10.06-17.41,16.24-10.19,12.59-9,31.14-17.43,45-4.2,6.93-10.54,12.27-17,17.22q-8.31,6.4-17,12.24C886,731.5,866.9,741.54,846.21,746.08c-3,.65-6,1.19-9,1.73l-7.11,1.27c-17,3-34.78,2.08-51.45,6.46-7.78,2.05-17,6.56-20.41-5.9,1.57,5.76-27.24,1.57-29.69.43-4.31-2-8.12-4.39-12.11-6-4.55-1.83-9.48.54-11.8-6a10.69,10.69,0,0,1-11.83-6.45" style="fill: none;stroke: #fff;stroke-linecap: round;stroke-linejoin: round;stroke-width: 15px"/>
    <path d="M838,493.64a26.33,26.33,0,0,1,10.44-7.14,17.63,17.63,0,0,1,6.89-1.07,10.73,10.73,0,0,1,1.85.22,13,13,0,0,1,1.84.45,11.39,11.39,0,0,1,1.78.71l.86.42.82.51.79.54.74.62.72.63.64.7.62.72.54.77a9.38,9.38,0,0,1,.95,1.57,19.17,19.17,0,0,1,2,6.59,26.94,26.94,0,0,1-1.64,12.52c-1.43-4-2.35-7.85-3.72-11.23a22.09,22.09,0,0,0-2.33-4.5,5.11,5.11,0,0,1-.33-.48c-.12-.15-.25-.29-.37-.43l-.35-.44-.4-.37-.38-.39-.41-.33-.42-.34-.45-.28a10.49,10.49,0,0,0-4-1.59,19.33,19.33,0,0,0-5-.18C846.1,492.11,842.24,493.09,838,493.64Z" style="fill: #fff"/>
    <path d="M896.73,577.31a28.4,28.4,0,0,1,13.77,7.35,27.54,27.54,0,0,1,8.06,14.24,23.65,23.65,0,0,1-2.69,16.43,20,20,0,0,1-5.49,6.18,14.66,14.66,0,0,1-7.41,2.86,23,23,0,0,0,7.9-11.35,25.12,25.12,0,0,0,.83-12.71,33.32,33.32,0,0,0-5.36-12.07A70.3,70.3,0,0,0,896.73,577.31Z" style="fill: #fff"/>
    <path d="M652.62,525.86a5.22,5.22,0,0,1-1.62-2.61,7.81,7.81,0,0,1-.15-3.27,10.45,10.45,0,0,1,3.19-5.85,19.81,19.81,0,0,1,5.18-3.5,47,47,0,0,1,5.3-2.15,22.29,22.29,0,0,1,12.13-.87,14.32,14.32,0,0,1,5.65,2.78,9.31,9.31,0,0,1,3.31,5,16.11,16.11,0,0,0-9.62-2.35,36.94,36.94,0,0,0-9.31,2c-.81.25-1.62.53-2.45.81l-2.48.82a28.92,28.92,0,0,0-4.36,1.71,9.1,9.1,0,0,0-3.33,2.69A6.68,6.68,0,0,0,652.62,525.86Z" style="fill: #fff"/>
    <path d="M725.43,540.22c-.49-.65-1-1.31-1.4-2s-.88-1.33-1.28-2a.78.78,0,0,1,0-.82L723,535a32.69,32.69,0,0,1,9.07-9.77,27.94,27.94,0,0,1,13-5.07,22.55,22.55,0,0,1,13.86,2.9,18.39,18.39,0,0,1,5.29,4.63,13.38,13.38,0,0,1,2.72,6.19,22.51,22.51,0,0,0-10.15-6.05,26.22,26.22,0,0,0-10.85-.78,37,37,0,0,0-10.66,3.46,87.9,87.9,0,0,0-10.43,6.2l.27-1.26c.1.79.15,1.59.22,2.38S725.41,539.41,725.43,540.22Z" style="fill: #fff"/>
    <path d="M727.53,628.51c3.15,3,5.66,6.32,8.46,8.79a18.5,18.5,0,0,0,8.76,4.78c2.91.58,5.88-.21,9-2.15s6.09-4.79,9.57-7.42a27.32,27.32,0,0,1-2.22,6.1,23.61,23.61,0,0,1-3.8,5.53,16.62,16.62,0,0,1-6,4.12,14.32,14.32,0,0,1-1.86.57c-.64.14-1.3.24-2,.33a15.33,15.33,0,0,1-3.95-.19,18.39,18.39,0,0,1-11.7-8.15A28.78,28.78,0,0,1,727.53,628.51Z" style="fill: #fff"/>
    <path d="M840.4,699.29c-.12,1.59-.34,3.14-.57,4.69l-.28-1.11a39.36,39.36,0,0,0,14,5.12,28.49,28.49,0,0,0,13.81-1A25.74,25.74,0,0,0,883.89,685a16.71,16.71,0,0,1,1.4,8.27,22.06,22.06,0,0,1-2.41,8.37,24.67,24.67,0,0,1-13.15,11.8,27.45,27.45,0,0,1-17.58.4,28.09,28.09,0,0,1-14-9.47l-.24-.31a.73.73,0,0,1,0-.81C838.68,701.94,839.49,700.6,840.4,699.29Z" style="fill: #fff"/>
  </g>
</svg>
