<svg xmlns="http://www.w3.org/2000/svg" viewBox="0 0 1000 1000">
  <title>Безымянный-2</title>
  <g id="Слой_2" data-name="Слой 2">
    <g>
      <g>
        <path d="M623.17,426a19.72,19.72,0,0,1-14.88,19.1,19.71,19.71,0,0,1,0,38.22,19.7,19.7,0,0,1-4.81,38.81H464.08a19.49,19.49,0,0,1-19.5-19.5V387.56a19.5,19.5,0,0,1,19.5-19.49h10.35l33-63a19.71,19.71,0,1,1,34.9,18.31l-23.42,44.67h84.52a19.71,19.71,0,0,1,4.81,38.82A19.7,19.7,0,0,1,623.17,426Z" style="fill: none;stroke: #000;stroke-miterlimit: 10;stroke-width: 20px"/>
        <rect x="376.83" y="369.17" width="67.57" height="147.25" rx="20.34" style="fill: none;stroke: #000;stroke-linecap: round;stroke-linejoin: round;stroke-width: 20px"/>
      </g>
      <path d="M314.22,686.14,222.88,861,322,828.28l36.79,101.3L460.91,734.43c-10.18,3.43-47.59,14.68-89.56-2.31A128.9,128.9,0,0,1,314.22,686.14Z" style="fill: none;stroke: #000;stroke-linecap: round;stroke-linejoin: round;stroke-width: 18px"/>
      <path d="M687.51,685l89.92,178.53-98.63-34L640.63,930.3,541.16,733.77c11.07,3.37,46.29,12.55,86.51-2.84A133.9,133.9,0,0,0,687.51,685Z" style="fill: none;stroke: #000;stroke-linecap: round;stroke-linejoin: round;stroke-width: 18px"/>
      <g>
        <path d="M481.52,704.11c0,7-2.86,13.57-8.34,19.32a39.26,39.26,0,0,1-4.6,4.14,52.73,52.73,0,0,1-5.53,3.59,69.2,69.2,0,0,1-6.45,3.2c-1.15.5-2.34,1-3.56,1.44s-2.46.81-3.75,1.19c-2.56.74-5.26,1.4-8.08,2-1.41.29-2.86.56-4.33.8s-2.95.37-4.47.52c-3,.27-6.18.45-9.42.53a83.07,83.07,0,0,1-9.92-.32c-3.38-.27-6.84-.61-10.36-1.11s-7-1.34-10.58-2.18c-1.79-.42-3.6-.83-5.39-1.35s-3.57-1.12-5.37-1.72-3.59-1.23-5.39-1.89-3.63-1.28-5.39-2.11q-5.38-2.4-10.54-5c-.85-.44-1.71-.86-2.54-1.32l-2.46-1.45c-1.63-1-3.23-2-4.81-3a130.56,130.56,0,0,1-17.21-13c-1.32-1.09-2.52-2.34-3.72-3.52s-2.36-2.4-3.48-3.6-2.22-2.4-3.28-3.59L321,693.93c-.5-.61-1-1.25-1.45-1.87-1.89-2.49-3.65-5-5.25-7.41-.8-1.22-1.56-2.44-2.28-3.64s-1.35-2.48-2-3.7c-1.22-2.47-2.3-4.88-3.22-7.24-.46-1.18-.88-2.35-1.26-3.5a35.55,35.55,0,0,1-1-3.45,49.11,49.11,0,0,1-1.43-12.94,33.54,33.54,0,0,1,.68-5.71,29,29,0,0,1,1.68-5.25,26,26,0,0,1,6-8.66" style="fill: none;stroke: #000;stroke-miterlimit: 10;stroke-width: 18px"/>
        <path d="M311.42,630.5c-4.48,5.41-10.79,8.7-18.67,9.69a39,39,0,0,1-6.17.29,53.35,53.35,0,0,1-6.56-.71,68.86,68.86,0,0,1-7-1.6c-1.2-.34-2.45-.7-3.66-1.14s-2.42-.93-3.65-1.45Q262,634,258.15,632c-1.27-.67-2.59-1.35-3.85-2.12s-2.51-1.59-3.78-2.44q-3.79-2.54-7.67-5.5c-1.31-1-2.51-2.06-3.75-3.15s-2.48-2.22-3.71-3.38-2.47-2.35-3.71-3.58c-.61-.61-1.24-1.22-1.84-1.86l-1.75-2c-2.32-2.66-4.63-5.44-6.9-8.32-1.17-1.43-2.22-3-3.26-4.49s-2.09-3.11-3.11-4.7-2-3.2-3-4.84-1.86-3.36-2.78-5.07c-1.8-3.5-3.53-7-5.09-10.49s-2.77-7.12-4-10.65c-.58-1.77-1.24-3.49-1.69-5.28s-.92-3.54-1.35-5.29c-.81-3.51-1.62-6.93-2.14-10.35-2-13.7-1.81-26.4.57-37.13q.88-4,2-7.64c.39-1.2.79-2.37,1.22-3.5s1-2.25,1.47-3.31a48.09,48.09,0,0,1,7-10.92,29.88,29.88,0,0,1,8.78-7A26,26,0,0,1,226,466.11" style="fill: none;stroke: #000;stroke-miterlimit: 10;stroke-width: 18px"/>
        <path d="M226,466c-6.9,1.36-13.86-.08-20.61-4.29a39,39,0,0,1-5-3.68,52.91,52.91,0,0,1-4.63-4.7,68.65,68.65,0,0,1-4.43-5.68c-.72-1-1.43-2.09-2.13-3.19s-1.28-2.25-1.91-3.43q-1.86-3.56-3.56-7.52a71.12,71.12,0,0,1-3.07-8.35c-.87-2.91-1.68-5.95-2.4-9.11-.36-1.57-.73-3.18-1-4.81s-.48-3.28-.69-5c-.42-3.36-.76-6.82-1-10.35s-.11-7.13,0-10.81c0-7.36,1.21-14.87,2.5-22.52.79-3.85,1.79-7.62,2.8-11.33.52-1.85,1-3.68,1.61-5.49s1.29-3.55,2-5.29c1.36-3.48,2.72-6.89,4.24-10.15s3.28-6.34,5-9.34c.86-1.5,1.71-3,2.6-4.4s1.9-2.78,2.86-4.12q2.88-4,5.82-7.64c.95-1.21,2-2.33,3.07-3.44s2.1-2.16,3.15-3.19q3.14-3.08,6.27-5.69a76.23,76.23,0,0,1,12.84-8.2,40.2,40.2,0,0,1,6.29-2.54,44.11,44.11,0,0,1,6.09-1.48c7.93-1.3,14.95.11,20.84,4.18" style="fill: none;stroke: #000;stroke-miterlimit: 10;stroke-width: 18px"/>
        <path d="M263.46,284.42c-6.21-3.3-10.68-8.79-13.18-16.28a42.14,42.14,0,0,1-1.52-6,40.42,40.42,0,0,1-.7-6.61,76.34,76.34,0,0,1,1.19-14.9,107.72,107.72,0,0,1,4.91-16.48q1.76-4.2,3.92-8.56c.72-1.45,1.47-2.9,2.26-4.37s1.69-2.86,2.58-4.3q2.7-4.29,5.78-8.65c2.09-2.85,4.42-5.59,6.8-8.39,1.2-1.39,2.42-2.78,3.68-4.16s2.63-2.65,4-4c2.74-2.6,5.53-5.24,8.5-7.73s6.19-4.79,9.31-7l2.34-1.65c.78-.54,1.6-1,2.4-1.53q2.43-1.49,4.84-2.9A129.3,129.3,0,0,1,330,151.61c1.58-.66,3.21-1.19,4.83-1.7s3.21-1,4.8-1.43,3.15-.87,4.7-1.26,3.06-.77,4.62-1q4.63-.79,9-1.24a66.32,66.32,0,0,1,8.48-.42,74.86,74.86,0,0,1,15.11,1.67,48.61,48.61,0,0,1,12.15,4.71,27.67,27.67,0,0,1,13.56,16.43" style="fill: none;stroke: #000;stroke-miterlimit: 10;stroke-width: 18px"/>
        <path d="M407.32,167.34c-2.74-6.48-2.75-13.58,0-21a43.14,43.14,0,0,1,2.58-5.63,47.28,47.28,0,0,1,3.66-5.5,68.72,68.72,0,0,1,4.67-5.47,55.52,55.52,0,0,1,5.66-5.33c2.06-1.68,4.28-3.35,6.65-5a73.69,73.69,0,0,1,7.56-4.71q4-2.16,8.45-4.18c1.47-.67,3-1.35,4.51-2s3.12-1.13,4.72-1.67q4.81-1.64,9.95-3.07c3.42-.87,7-1.53,10.57-2.18q2.71-.48,5.48-.9c.93-.15,1.85-.26,2.79-.33l2.81-.24q5.66-.44,11.47-.6c3.93,0,7.81.21,11.64.45,1.91.13,3.81.29,5.69.46s3.74.54,5.58.83q5.52.93,10.78,2.09c3.5.87,6.88,1.94,10.16,3a102.68,102.68,0,0,1,32.72,17.48c1.06.87,2.09,1.68,3.06,2.6s1.89,1.84,2.78,2.76a69.81,69.81,0,0,1,4.81,5.53,50.67,50.67,0,0,1,3.79,5.55,44.27,44.27,0,0,1,2.68,5.71c2.87,7.54,2.91,14.74.13,21.31" style="fill: none;stroke: #000;stroke-miterlimit: 10;stroke-width: 18px"/>
        <path d="M592.77,167.36A27.54,27.54,0,0,1,606,151.08a48.14,48.14,0,0,1,11.88-4.74,71,71,0,0,1,14.8-1.78c1.35,0,2.73-.07,4.12,0s2.78.18,4.2.31c2.85.26,5.8.64,8.83,1.14a80.58,80.58,0,0,1,9.18,2.09c3.11.86,6.3,1.81,9.51,2.93s6.35,2.56,9.58,4c1.61.74,3.24,1.47,4.86,2.28s3.17,1.74,4.76,2.65c3.17,1.83,6.41,3.71,9.54,5.83s6.17,4.46,9.23,6.84l2.31,1.82c.75.64,1.47,1.29,2.19,1.94q2.18,2,4.27,3.93a102.56,102.56,0,0,1,7.92,8.12q3.69,4.22,7,8.45c2.15,2.88,4.1,5.84,6,8.73.93,1.46,1.83,2.9,2.7,4.34s1.6,3,2.36,4.42q2.24,4.41,4.08,8.69l.89,2.13c.26.73.51,1.45.76,2.17.5,1.43,1,2.86,1.39,4.26.85,2.8,1.57,5.54,2.15,8.19A73.94,73.94,0,0,1,751.93,255c0,1.17-.07,2.3-.16,3.42s-.28,2.24-.46,3.32a43.73,43.73,0,0,1-1.49,6.09c-2.49,7.65-7,13.24-13.28,16.59" style="fill: none;stroke: #000;stroke-miterlimit: 10;stroke-width: 18px"/>
        <path d="M736.58,284.5c5.81-4,12.72-5.45,20.52-4.24a43.83,43.83,0,0,1,6,1.4,42.12,42.12,0,0,1,6.21,2.42A75.94,75.94,0,0,1,782,292a109.87,109.87,0,0,1,12.41,11.94c1.93,2.34,3.86,4.82,5.76,7.43a85.56,85.56,0,0,1,5.48,8.29c1.7,2.93,3.37,6,5,9.14.4.79.81,1.58,1.2,2.39l1.06,2.46c.7,1.66,1.39,3.35,2.07,5.05s1.33,3.44,2,5.2c.31.88.65,1.75.93,2.65l.79,2.71c1,3.64,2,7.36,2.9,11.13.49,1.91.73,3.86,1.07,5.77s.58,3.84.84,5.74.49,3.8.69,5.68.22,3.77.3,5.63c.14,3.73.18,7.4.12,11s-.52,7.12-.9,10.55a102.91,102.91,0,0,1-10.55,35.54c-.62,1.22-1.26,2.39-1.9,3.52s-1.42,2.23-2.13,3.29a71.9,71.9,0,0,1-4.47,5.83,54,54,0,0,1-4.67,4.84,36,36,0,0,1-5,3.79c-6.82,4.35-13.87,5.85-20.87,4.47" style="fill: none;stroke: #000;stroke-miterlimit: 10;stroke-width: 18px"/>
        <path d="M774,466.11A25.89,25.89,0,0,1,784,469a29.85,29.85,0,0,1,8.71,6.83,47.78,47.78,0,0,1,7,10.66c.51,1,1,2.12,1.48,3.23s.84,2.25,1.24,3.43q1.15,3.52,2.06,7.46c.3,1.31.58,2.66.84,4a41.67,41.67,0,0,1,.63,4.2c.3,2.83.5,5.79.61,8.85A108.55,108.55,0,0,1,805.48,537c-.11.84-.23,1.69-.34,2.54s-.32,1.68-.49,2.53q-.52,2.55-1.12,5.13t-1.28,5.21c-.23.88-.47,1.75-.7,2.63s-.55,1.74-.84,2.61q-1.76,5.21-3.83,10.51c-.35.88-.69,1.77-1.07,2.64s-.81,1.72-1.22,2.59q-1.23,2.6-2.55,5.19t-2.72,5.2c-.92,1.72-2,3.33-3,5-2.06,3.24-4.15,6.4-6.31,9.43s-4.62,5.8-7,8.52c-1.18,1.36-2.32,2.72-3.56,4s-2.49,2.48-3.74,3.68c-2.51,2.38-5,4.64-7.51,6.76s-5.21,3.92-7.78,5.68a86.65,86.65,0,0,1-15.36,8.45,63,63,0,0,1-14.57,4.43,54.28,54.28,0,0,1-6.68.79,37.15,37.15,0,0,1-6.28-.23c-8-.94-14.44-4.23-19-9.72" style="fill: none;stroke: #000;stroke-miterlimit: 10;stroke-width: 18px"/>
        <path d="M688.51,630.56a26.24,26.24,0,0,1,6,8.53,28.61,28.61,0,0,1,1.69,5.16,33.44,33.44,0,0,1,.72,5.62,49.89,49.89,0,0,1-3.42,19.55c-.88,2.32-1.91,4.7-3.09,7.12-.59,1.22-1.22,2.44-1.88,3.67s-1.43,2.39-2.2,3.59q-2.32,3.62-5.08,7.31a76.17,76.17,0,0,1-6.07,7.2q-3.28,3.56-7,7.1-3.79,3.36-8,6.65-2.09,1.65-4.26,3.28c-1.47,1-3,2-4.53,3-3.09,2-6.27,3.95-9.57,5.8s-6.81,3.42-10.34,5c-14.42,6.29-29.19,10.14-43,11.16-1.72.14-3.42.27-5.1.36l-2.51.13c-.83,0-1.67,0-2.49,0-3.31-.05-6.51-.21-9.61-.46-1.55-.12-3.07-.27-4.56-.44s-3-.49-4.43-.77c-2.88-.57-5.65-1.21-8.27-1.94-1.31-.37-2.59-.76-3.83-1.16s-2.47-.94-3.65-1.43a70.05,70.05,0,0,1-6.61-3.21,52.09,52.09,0,0,1-5.68-3.6,38,38,0,0,1-4.71-4.15c-5.63-5.81-8.52-12.42-8.57-19.55" style="fill: none;stroke: #000;stroke-miterlimit: 10;stroke-width: 18px"/>
      </g>
      <circle cx="500" cy="428.09" r="223.37" style="fill: none;stroke: #000;stroke-miterlimit: 10;stroke-width: 20px"/>
      <circle cx="500" cy="718.65" r="22.64" style="fill: none;stroke: #000;stroke-linecap: round;stroke-linejoin: round;stroke-width: 21px"/>
    </g>
  </g>
  <g id="Слой_4" data-name="Слой 4">
    <line x1="403.28" y1="762.25" x2="365.24" y2="836.83" style="fill: none;stroke: #000;stroke-linecap: round;stroke-linejoin: round;stroke-width: 10px"/>
    <line x1="680.4" y1="735.09" x2="715.16" y2="811.26" style="fill: none;stroke: #000;stroke-linecap: round;stroke-linejoin: round;stroke-width: 10px"/>
  </g>
</svg>
