<svg xmlns="http://www.w3.org/2000/svg" viewBox="0 0 1000 1000">
  <title>Безымянный-2</title>
  <g id="Слой_4" data-name="Слой 4">
    <circle cx="433.45" cy="291.11" r="54.27" style="fill: none;stroke: #000;stroke-linecap: round;stroke-linejoin: round;stroke-width: 18px"/>
    <path d="M380.11,376.65q10.54,33.75,21.07,67.5h59.34l21.93-67.5a339.85,339.85,0,0,0-102.34,0Z" style="fill: none;stroke: #000;stroke-linecap: round;stroke-linejoin: round;stroke-width: 18px"/>
    <path d="M616.89,567.52H754.12s7.36,36.8-34.7,49.42H650.54S608.48,604.32,616.89,567.52Z" style="fill: none;stroke: #000;stroke-linecap: round;stroke-linejoin: round;stroke-width: 10px"/>
    <path d="M786.14,592.23h85s4.56,22.81-21.5,30.62H807S780.93,615,786.14,592.23Z" style="fill: none;stroke: #000;stroke-linecap: round;stroke-linejoin: round;stroke-width: 10px"/>
    <line x1="389.71" y1="256.36" x2="386.59" y2="218.31" style="fill: none;stroke: #000;stroke-linecap: round;stroke-linejoin: round;stroke-width: 10px"/>
    <line x1="474.42" y1="253.37" x2="471.31" y2="215.32" style="fill: none;stroke: #000;stroke-linecap: round;stroke-linejoin: round;stroke-width: 10px"/>
    <path d="M358.39,203.93c6.63,8.52,18.2,12,29,11.29s20.91-5.19,30.48-10.17c3.53-1.84,7.15-3.8,11.12-4.16a29.12,29.12,0,0,1,8.6.94l20.9,4.45c13.18,2.8,28.42,5.16,38.9-3.32,11.71-9.48,10.44-29.65-.69-39.81s-28.78-10.82-42.38-4.33c-2.83,1.35-5.56,3-8.6,3.75-9.59,2.43-19.2-4.17-29.1-4.16a22.16,22.16,0,0,0-13.81,4.88c-1.39,1.12-2.72,2.45-4.44,2.93-2.72.76-5.47-.82-8.07-1.92C366.42,154.16,341.8,182.62,358.39,203.93Z" style="fill: none;stroke: #000;stroke-linecap: round;stroke-linejoin: round;stroke-width: 10px"/>
    <path d="M169.34,611.59a14.23,14.23,0,0,1-3-6c-1.17-6.3,4-12.1,9.69-15.11,11.81-6.28,26.11-5.16,39.25-2.67S241.7,594,255,592.31c3.32-.42,6.65-1.17,10-.92,9.11.69,16.58,10.06,15.23,19.09a10.16,10.16,0,0,1-2,4.93c-2.27,2.81-6.19,3.52-9.76,4C245.56,622.39,186,632.79,169.34,611.59Z" style="fill: none;stroke: #000;stroke-linecap: round;stroke-linejoin: round;stroke-width: 10px"/>
    <rect x="107.25" y="112.6" width="790.48" height="392.41" rx="43.2" style="fill: none;stroke: #000;stroke-linecap: round;stroke-linejoin: round;stroke-width: 18px"/>
    <line x1="134.2" y1="862.84" x2="691.48" y2="862.84" style="fill: none;stroke: #000;stroke-linecap: round;stroke-linejoin: round;stroke-width: 10px"/>
    <line x1="730.36" y1="862.84" x2="816.76" y2="862.84" style="fill: none;stroke: #000;stroke-linecap: round;stroke-linejoin: round;stroke-width: 10px"/>
    <line x1="867.48" y1="165.16" x2="867.48" y2="442.79" style="fill: none;stroke: #000;stroke-linecap: round;stroke-linejoin: round;stroke-width: 10px"/>
    <line x1="143.67" y1="155.53" x2="143.67" y2="254.1" style="fill: none;stroke: #000;stroke-linecap: round;stroke-linejoin: round;stroke-width: 10px"/>
  </g>
  <g id="Слой_5" data-name="Слой 5">
    <line x1="497.52" y1="448.59" x2="507.47" y2="535.94" style="fill: none;stroke: #000;stroke-linecap: round;stroke-linejoin: round;stroke-width: 18px"/>
    <rect x="104.76" y="626.2" width="790.48" height="272.37" style="fill: none;stroke: #000;stroke-linecap: round;stroke-linejoin: round;stroke-width: 18px"/>
    <path d="M566.72,625.7l-62.22.5H355.15c1.18-1.28,3.29-3.49,6.13-6.21,1.38-1.33,2.94-2.77,4.65-4.28C373,609.46,382.7,602,393.45,597q.6-.3,1.2-.57c5.08-2.3,28.83-14.36,52.44-5.53,7.6,2.85,14.61,7.26,22.22,10a74,74,0,0,0,10.94,2,111.53,111.53,0,0,0,25.27-.67h0a38.48,38.48,0,0,1,4.47-1.86c5.17-1.78,9.53-1.79,12.31-2.16,8-1.08,16.13-1.28,23.84,1C557.82,602.61,568.23,613.61,566.72,625.7Z" style="fill: none;stroke: #000;stroke-linecap: round;stroke-linejoin: round;stroke-width: 18px"/>
    <path d="M504.5,626.2l-150.43,1.2s.37-.43,1.08-1.2Z" style="fill: none;stroke: #000;stroke-linecap: round;stroke-linejoin: round;stroke-width: 18px"/>
    <path d="M389.37,592.9a231.3,231.3,0,0,1-23.81,20.34q-3.54,2.63-7,5c-6.42-4.23-56.67-38.54-62.29-103.17C289.71,440,349.51,394.3,353,391.76l16.79,69.5c-6.47,5-26.24,21.69-28.18,47.34-.29,3.8-.42,11,2.88,22.32C353.21,561,375,581.7,389.37,592.9Z" style="fill: none;stroke: #000;stroke-linecap: round;stroke-linejoin: round;stroke-width: 18px"/>
    <path d="M573.43,535.4c-15,28.68-41.23,48.22-66.94,65.53-.34.23-1,.76-2,1.32-2.34,1.35-7.11,3.42-20.92,1.34-7.35-1.11-16-2.49-18-6.91a25.41,25.41,0,0,1-1.14-3.28,30.19,30.19,0,0,1-.94-6.4c-.27-10.51,15.4-23,15.4-23,13.44-9.54,27.7-15.95,38.62-29.22,11.7-14.2,19.44-37,12.16-55.13-3.38-8.43-9.29-14.46-16.59-19.16-1.59-1-16.76-8.53-16.76-8.53s10.24-41.43,15.37-62.15C569,408.83,603.78,477.49,573.43,535.4Z" style="fill: none;stroke: #000;stroke-linecap: round;stroke-linejoin: round;stroke-width: 18px"/>
    <line x1="369.74" y1="461.26" x2="362.45" y2="561.91" style="fill: none;stroke: #000;stroke-linecap: round;stroke-linejoin: round;stroke-width: 18px"/>
  </g>
</svg>
