<svg id="Слой_2" data-name="Слой 2" xmlns="http://www.w3.org/2000/svg" viewBox="0 0 1000 1000">
  <title>іконки 2 [Восстановлен]</title>
  <g>
    <g>
      <path d="M450.2,205.07a506.27,506.27,0,0,0-17.83,86.1,148.75,148.75,0,0,0-61.14-26.11A148.91,148.91,0,0,1,450.2,205.07Z" style="fill: none;stroke: #fff;stroke-linecap: round;stroke-linejoin: round;stroke-width: 15px"/>
      <path d="M620.71,266.75a149.42,149.42,0,0,0-71,39.69c-15.08-41.63-22-76.26-23-105.07q5.31,1.14,10.46,2.65a149.27,149.27,0,0,1,83.49,62.73Z" style="fill: none;stroke: #fff;stroke-linecap: round;stroke-linejoin: round;stroke-width: 15px"/>
      <path d="M644,568.94c0-3.52-.16-7-.41-10.47-94.18,19.22-193.19,20.53-288.67,8.66-2.65-.33-5.31-.68-8-1,0,.95-.07,1.89-.07,2.84v247.6a148.56,148.56,0,0,0,297.11,0Z" style="fill: none;stroke: #fff;stroke-linecap: round;stroke-linejoin: round;stroke-width: 15px"/>
      <path d="M643.56,452.86c-94.18,19.21-193.19,20.54-288.66,8.65-2.66-.35-5.31-.67-8-1A148.3,148.3,0,0,1,461.18,318.75L503.52,315l33.7,5.72a148.05,148.05,0,0,1,63.23,37.56c1,1,1.94,2,2.87,3,1.62,1.69,3.2,3.44,4.69,5.2.45.47.84,1,1.23,1.43.71.83,1.4,1.67,2.06,2.53.59.71,1.16,1.42,1.72,2.16a6.75,6.75,0,0,1,.59.79c.52.64,1,1.3,1.45,2a145.87,145.87,0,0,1,14.91,25c.59,1.23,1.16,2.46,1.67,3.73s1.16,2.66,1.67,4c1.08,2.68,2.07,5.4,3,8.18.37,1.08.71,2.16,1.06,3.26.17.55.34,1.09.49,1.65.39,1.3.76,2.6,1.1,3.91.4,1.49.76,3,1.11,4.52s.69,3,1,4.54c.27,1.25.49,2.51.71,3.78.27,1.55.52,3.1.71,4.67.1.61.18,1.23.25,1.84.17,1.2.3,2.43.42,3.66C643.31,449.69,643.43,451.27,643.56,452.86Z" style="fill: none;stroke: #fff;stroke-linecap: round;stroke-linejoin: round;stroke-width: 15px"/>
      <path d="M461.18,318.75A148.3,148.3,0,0,0,346.94,460.48a694.39,694.39,0,0,1-70.47-12.8C249,441.12,222.09,432.52,196.79,421A148.56,148.56,0,0,1,325.64,264a150.29,150.29,0,0,1,19.53-1.27,146.85,146.85,0,0,1,26.06,2.31,148.49,148.49,0,0,1,61.26,26.23Z" style="fill: none;stroke: #fff;stroke-linecap: round;stroke-linejoin: round;stroke-width: 15px"/>
      <path d="M346.86,568.94c0-1,.05-1.89.07-2.84-51.36-6.84-103.44-18.24-150.15-39.44.21,3.19.49,6.4.92,9.62L230,781.78A148.57,148.57,0,0,0,380.71,911a147.92,147.92,0,0,1-33.85-94.41Z" style="fill: none;stroke: #fff;stroke-linecap: round;stroke-linejoin: round;stroke-width: 15px"/>
      <path d="M803.07,399.32a638.59,638.59,0,0,1-103.61,39.79q-27.6,8-55.9,13.75c-.1-1.59-.25-3.17-.42-4.74-.12-1.23-.25-2.46-.42-3.66-.07-.61-.15-1.23-.25-1.84-.19-1.57-.44-3.12-.71-4.67-.22-1.27-.44-2.53-.71-3.78-.29-1.52-.61-3.05-1-4.54s-.71-3-1.11-4.52c-.34-1.31-.71-2.61-1.1-3.91-.15-.56-.32-1.1-.49-1.65-.32-1.1-.69-2.18-1-3.26h0c-.91-2.78-1.92-5.5-3-8.18-.51-1.35-1.08-2.68-1.67-4s-1.08-2.5-1.67-3.73a145.87,145.87,0,0,0-14.91-25c-.46-.66-.93-1.32-1.45-2a6.75,6.75,0,0,0-.59-.79c-.56-.74-1.13-1.45-1.72-2.16-.66-.86-1.35-1.7-2.06-2.53-.39-.47-.78-1-1.23-1.43-1.49-1.76-3.07-3.51-4.69-5.2-.93-1-1.89-2-2.87-3a148.05,148.05,0,0,0-63.23-37.56l12.53-14.27a149.08,149.08,0,0,1,71-39.72,146.6,146.6,0,0,1,34.09-4A150.29,150.29,0,0,1,674.33,264,148.62,148.62,0,0,1,803.07,399.32Z" style="fill: none;stroke: #fff;stroke-linecap: round;stroke-linejoin: round;stroke-width: 15px"/>
      <path d="M643.56,558.47c.25,3.46.41,6.95.41,10.47v247.6a147.81,147.81,0,0,1-33.48,93.92A148.49,148.49,0,0,0,770,781.78l32.25-245.5a149.28,149.28,0,0,0,.78-31.34C752.7,529.63,699,547.16,643.56,558.47Z" style="fill: none;stroke: #fff;stroke-linecap: round;stroke-linejoin: round;stroke-width: 15px"/>
      <path d="M439.14,296.47c.71.58,1.41,1.16,2.1,1.75,2.11,1.8,4.18,3.63,6.19,5.54l.45.43c2.06,2,4,4,6,6.12L455.4,312c2,2.2,3.93,4.44,5.78,6.76a148.61,148.61,0,0,1,34.24-4c1.54,0,3.06,0,4.59.08q6.14.19,12.14.86l.13,0c2.6.3,5.18.67,7.74,1.09l1,.17q3.77.66,7.45,1.5l1.27.3c2.51.6,5,1.23,7.44,1.95,1.72-2.23,3.52-4.39,5.36-6.51.47-.55.95-1.09,1.43-1.63,1.86-2.09,3.76-4.15,5.74-6.13v0c-15.08-41.63-22-76.26-23-105.07C521.8,63.69,649.87,58.93,649.87,58.93V37.7C529.73,16.19,474.54,123.43,450.2,205.07a506.27,506.27,0,0,0-17.83,86.1v0h0c.38.28.74.59,1.12.87Q436.38,294.21,439.14,296.47Z" style="fill: none;stroke: #fff;stroke-linecap: round;stroke-linejoin: round;stroke-width: 15px"/>
      <path d="M529.78,318.79c2.51.6,5,1.23,7.44,1.95C534.77,320,532.29,319.39,529.78,318.79Z" style="fill: none;stroke: #fff;stroke-linecap: round;stroke-linejoin: round;stroke-width: 15px"/>
      <path d="M512.28,315.73c2.61.29,5.18.67,7.74,1.09C517.46,316.4,514.88,316,512.28,315.73Z" style="fill: none;stroke: #fff;stroke-linecap: round;stroke-linejoin: round;stroke-width: 15px"/>
      <path d="M521.06,317q3.77.66,7.45,1.5Q524.82,317.65,521.06,317Z" style="fill: none;stroke: #fff;stroke-linecap: round;stroke-linejoin: round;stroke-width: 15px"/>
      <path d="M512.15,315.71q-6-.66-12.14-.86c1.17,0,2.35.09,3.51.17C506.42,315.16,509.3,315.4,512.15,315.71Z" style="fill: none;stroke: #fff;stroke-linecap: round;stroke-linejoin: round;stroke-width: 15px"/>
      <path d="M447.88,304.19c2.06,2,4,4,6,6.12C451.92,308.22,449.94,306.17,447.88,304.19Z" style="fill: none;stroke: #fff;stroke-linecap: round;stroke-linejoin: round;stroke-width: 15px"/>
      <path d="M447.43,303.76c-2-1.91-4.08-3.74-6.19-5.54C443.35,300,445.42,301.85,447.43,303.76Z" style="fill: none;stroke: #fff;stroke-linecap: round;stroke-linejoin: round;stroke-width: 15px"/>
      <path d="M461.18,318.75c-1.85-2.32-3.79-4.56-5.78-6.76C457.38,314.19,459.33,316.43,461.18,318.75Z" style="fill: none;stroke: #fff;stroke-linecap: round;stroke-linejoin: round;stroke-width: 15px"/>
      <path d="M439.14,296.47q-2.76-2.27-5.63-4.41Q436.38,294.21,439.14,296.47Z" style="fill: none;stroke: #fff;stroke-linecap: round;stroke-linejoin: round;stroke-width: 15px"/>
      <path d="M544,312.6c1.86-2.09,3.76-4.15,5.74-6.13h0C547.77,308.45,545.87,310.51,544,312.6Z" style="fill: none;stroke: #fff;stroke-linecap: round;stroke-linejoin: round;stroke-width: 15px"/>
      <path d="M537.22,320.74c1.72-2.23,3.52-4.39,5.36-6.51C540.74,316.35,538.94,318.51,537.22,320.74Z" style="fill: none;stroke: #fff;stroke-linecap: round;stroke-linejoin: round;stroke-width: 15px"/>
      <path d="M441.24,298.22c-.69-.59-1.39-1.17-2.1-1.75C439.85,297.05,440.55,297.63,441.24,298.22Z" style="fill: none;stroke: #fff;stroke-linecap: round;stroke-linejoin: round;stroke-width: 15px"/>
      <path d="M455.4,312l-1.54-1.68Z" style="fill: none;stroke: #fff;stroke-linecap: round;stroke-linejoin: round;stroke-width: 15px"/>
      <path d="M447.43,303.76l.45.43Z" style="fill: none;stroke: #fff;stroke-linecap: round;stroke-linejoin: round;stroke-width: 15px"/>
      <path d="M432.39,291.19l.11.11c.34.24.67.51,1,.76C433.13,291.78,432.77,291.47,432.39,291.19Z" style="fill: none;stroke: #fff;stroke-linecap: round;stroke-linejoin: round;stroke-width: 15px"/>
      <path d="M455.4,312l-1.54-1.68c-1.94-2.09-3.92-4.14-6-6.12l-.45-.43c-2-1.91-4.08-3.74-6.19-5.54-.69-.59-1.39-1.17-2.1-1.75q-2.76-2.27-5.63-4.41c-.34-.25-.67-.52-1-.76l28.68,27.45C459.33,316.43,457.38,314.19,455.4,312Z" style="fill: none;stroke: #fff;stroke-linecap: round;stroke-linejoin: round;stroke-width: 15px"/>
      <path d="M495.42,314.77c1.53,0,3.06,0,4.59.08C498.48,314.8,497,314.77,495.42,314.77Z" style="fill: none;stroke: #fff;stroke-linecap: round;stroke-linejoin: round;stroke-width: 15px"/>
      <path d="M500,314.85c-1.53,0-3.06-.08-4.59-.08a148.61,148.61,0,0,0-34.24,4L503.52,315C502.36,314.94,501.18,314.89,500,314.85Z" style="fill: none;stroke: #fff;stroke-linecap: round;stroke-linejoin: round;stroke-width: 15px"/>
      <path d="M528.51,318.49l1.27.3Z" style="fill: none;stroke: #fff;stroke-linecap: round;stroke-linejoin: round;stroke-width: 15px"/>
      <path d="M520,316.82l1,.17Z" style="fill: none;stroke: #fff;stroke-linecap: round;stroke-linejoin: round;stroke-width: 15px"/>
      <path d="M512.15,315.71l.13,0Z" style="fill: none;stroke: #fff;stroke-linecap: round;stroke-linejoin: round;stroke-width: 15px"/>
      <path d="M537.22,320.74c-2.45-.72-4.93-1.35-7.44-1.95l-1.27-.3q-3.69-.84-7.45-1.5l-1-.17c-2.56-.42-5.13-.8-7.74-1.09l-.13,0c-2.85-.31-5.73-.55-8.63-.69Z" style="fill: none;stroke: #fff;stroke-linecap: round;stroke-linejoin: round;stroke-width: 15px"/>
      <path d="M542.58,314.23c.47-.55.95-1.09,1.43-1.63C543.53,313.14,543.05,313.68,542.58,314.23Z" style="fill: none;stroke: #fff;stroke-linecap: round;stroke-linejoin: round;stroke-width: 15px"/>
      <path d="M544,312.6c-.48.54-1,1.08-1.43,1.63-1.84,2.12-3.64,4.28-5.36,6.51l12.53-14.27C547.77,308.45,545.87,310.51,544,312.6Z" style="fill: none;stroke: #fff;stroke-linecap: round;stroke-linejoin: round;stroke-width: 15px"/>
      <path d="M713.45,434.89s21.26,10.69,46.07,30.79a302.59,302.59,0,0,1,43.83,43.7,290.64,290.64,0,0,0-35.89-37.16A295.88,295.88,0,0,0,713.45,434.89Z" style="fill: none;stroke: #fff;stroke-linecap: round;stroke-linejoin: round;stroke-width: 15px"/>
      <path d="M276.47,447.68a196.84,196.84,0,0,0-79.69,79" style="fill: none;stroke: #fff;stroke-linecap: round;stroke-linejoin: round;stroke-width: 15px"/>
      <path d="M285.52,555.39a459.77,459.77,0,0,1,179.83-54.93c112.1-10,198.81,24.29,238.4,43" style="fill: none;stroke: #fff;stroke-linecap: round;stroke-linejoin: round;stroke-width: 15px"/>
    </g>
    <path d="M387.7,858a135.09,135.09,0,0,0,110.08,75.19" style="fill: none;stroke: #fff;stroke-linecap: round;stroke-linejoin: round;stroke-width: 15px"/>
    <path d="M535.5,926.67a73.37,73.37,0,0,0,40.09-32.42" style="fill: none;stroke: #fff;stroke-linecap: round;stroke-linejoin: round;stroke-width: 15px"/>
    <path d="M267.61,796.48a79.64,79.64,0,0,0,43.24,57.26" style="fill: none;stroke: #fff;stroke-linecap: round;stroke-linejoin: round;stroke-width: 15px"/>
  </g>
</svg>
