<svg xmlns="http://www.w3.org/2000/svg" viewBox="0 0 1000 1000">
  <title>іконки 2 [Восстановлен]</title>
  <g id="Слой_7" data-name="Слой 7">
    <path d="M322.47,223.61s-24.34,69.69,33.37,74.19,55.25-46.23,49.07-69.89S346.8,177.54,322.47,223.61Z" style="fill: none;stroke: #fff;stroke-linecap: round;stroke-linejoin: round;stroke-width: 15px"/>
    <path d="M400.84,217.45c10.82-8.58,26.53-7.44,36.82,1.45,16.14,13.95,19.71,47,5.26,63.1-10.24,11.43-31.14,15.81-44,6" style="fill: none;stroke: #fff;stroke-linecap: round;stroke-linejoin: round;stroke-width: 15px"/>
    <path d="M424,205.86c.86-8.32,6.35-15.6,13.1-20.54s14.72-7.9,22.56-10.79" style="fill: none;stroke: #fff;stroke-linecap: round;stroke-linejoin: round;stroke-width: 15px"/>
    <path d="M238.74,226.21s-74.07,20.3-43.1,56.35,196.74,45.54,246.22,33,99.07-31.35,11.34-74.07" style="fill: none;stroke: #fff;stroke-linecap: round;stroke-linejoin: round;stroke-width: 15px"/>
    <path d="M189.68,257.65c-15.52,41.6-18.83,73.75-19.41,92.85-.39,13.07.75,23.92,6.74,34.93,7.59,14,22.45,22.55,37.61,27.34,15.54,4.9,21.31,3.1,46.48,10.49,8.49,2.49,15.34,5,19.84,6.73" style="fill: none;stroke: #fff;stroke-linecap: round;stroke-linejoin: round;stroke-width: 15px"/>
    <path d="M280.94,430A336.32,336.32,0,0,0,363.67,446a92,92,0,0,0,14.74.59c16.07-1,22.35-7.07,35.63-11.71,25.89-9,35.09,2.34,58.26-8.89a84.72,84.72,0,0,0,17-11.52c22.67-20,26.42-76.71,8.38-142.37" style="fill: none;stroke: #fff;stroke-linecap: round;stroke-linejoin: round;stroke-width: 15px"/>
    <path d="M207.05,409.48c-3.44.22-26.65,2-39.94,21.14-11.89,17.1-8.06,36.88-7.24,41.1,2.92,15.1,9.59,15.51,11.23,29.68,1.84,15.83-5.9,20.27-5,35.42,1,18.14,13.29,31.16,15.48,33.41,15,15.43,35.86,18.18,71.22,18.17h48.08c14.33,0,28.71,0,42.93,1.83,12.56,1.62,24.93,4.66,37.56,5.59,13.93,1,27.9-.53,41.77-2.14,14.71-1.72,22-3,29.25-5.87,6.84-2.68,27.78-12.54,41.52-48.86" style="fill: none;stroke: #fff;stroke-linecap: round;stroke-linejoin: round;stroke-width: 15px"/>
    <path d="M194.5,580.24a43.76,43.76,0,0,0-16.1,26.41c-1,5.37-1,10.89-2,16.25-1.31,6.57-4.24,12.71-6,19.19-6.83,25.72,6.89,53.63,27.84,70s47.79,23.26,74.12,27.06c66.05,9.56,133.23,2.56,199.59-4.45,3.17-.33,6.74-.9,8.54-3.53" style="fill: none;stroke: #fff;stroke-linecap: round;stroke-linejoin: round;stroke-width: 15px"/>
    <path d="M202.55,672.76c10.51,15.46,27.42,25.71,45.25,31.32s36.7,6.94,55.37,7.6" style="fill: none;stroke: #fff;stroke-linecap: round;stroke-linejoin: round;stroke-width: 11px"/>
    <path d="M193,540.79c5,8.14,13.57,13.53,22.63,16.5s18.66,3.76,28.16,4.54l46.5,3.78" style="fill: none;stroke: #fff;stroke-linecap: round;stroke-linejoin: round;stroke-width: 11px"/>
    <path d="M516.45,506.31c-26.58,28.31-33.31,54.93-35.46,67.93C473.77,617.94,493.8,657,512.32,693c9.47,18.44,14.2,27.66,20.52,34.56,54.15,59.08,174,22.31,193.74,16.25,36.1-11.08,83.92-25.69,110.06-70.89,16.61-28.74,18.07-58.62,18.42-67.67.56-14.44,1.76-45.74-16.9-76.12-27.47-44.72-77.62-54.33-87.12-56" style="fill: none;stroke: #fff;stroke-linecap: round;stroke-linejoin: round;stroke-width: 15px"/>
    <path d="M582.5,519.17c-7.75,14.17-8.64,31.63-3.56,47,5.83,17.6,20.37,33,38.61,36.33,11.82,2.17,24.13-.74,35-5.93,21.09-10.1,38.62-32.16,35-55.26a57,57,0,0,0-5.94-17c-4-7.78-9.12-15.15-16.16-20.33C639.8,485.07,598.15,490.52,582.5,519.17Z" style="fill: none;stroke: #fff;stroke-linecap: round;stroke-linejoin: round;stroke-width: 15px"/>
    <path d="M479.61,587.29c-.08,51.61-.46,88.85-1.66,108.28a73.86,73.86,0,0,0,2.27,25c2.87,10.5,7,16.09,12.66,25.4,17.28,28.69,13.09,34.7,24.91,48.4,9.67,11.2,20.59,15.92,31.45,21.53,86.31,44.57,181.61,17.21,181.61,17.21,29.85-8.57,108-31,135.93-98.47,14.05-33.91,9.92-65.88,4.1-110.93-5.58-43.23-10.52-72.88-33.57-101.88C809.65,487,772,474.68,754.5,470.21" style="fill: none;stroke: #fff;stroke-linecap: round;stroke-linejoin: round;stroke-width: 15px"/>
    <path d="M583.55,303.57S518,435.78,629.33,437.73C629.33,437.73,722.81,393.28,583.55,303.57Z" style="fill: none;stroke: #fff;stroke-linecap: round;stroke-linejoin: round;stroke-width: 15px"/>
    <path d="M629.33,437.73s19,17.17,15.41,54.85" style="fill: none;stroke: #fff;stroke-linecap: round;stroke-linejoin: round;stroke-width: 15px"/>
    <path d="M649.42,492.14c-.7-5.86-4.77-44.89,22.21-72.25,27.87-28.27,77.49-32.55,118-6.55-7.8,3.23-17,8.72-23.88,18.18-4.38,6-6.31,11.51-10,22.28-5.72,16.69-4.65,20.4-8.06,29.56-4.26,11.43-13.84,26.14-25.07,32.19-17.73,9.56-44.54,3.08-65.22-16.52" style="fill: none;stroke: #fff;stroke-linecap: round;stroke-linejoin: round;stroke-width: 15px"/>
    <path d="M406.17,214.16s-69.31-128,129.31-65.1c0,0,15.64,72.25-84.65,78.53" style="fill: none;stroke: #fff;stroke-linecap: round;stroke-linejoin: round;stroke-width: 15px"/>
    <path d="M225.61,211.59s18.86,34.91,84.79,24.57c1.65-.26,3.34-.54,5.05-.86,0,0,13.51-47.26,64.59-32.47,0,0,20-20.6-12.91-26.43C367.13,176.4,387.06,67.24,225.61,211.59Z" style="fill: none;stroke: #fff;stroke-linecap: round;stroke-linejoin: round;stroke-width: 15px"/>
    <path d="M629.33,492.14s-2.14-92-121.82-14.82c0,0,6.44,41.25,61,52.15" style="fill: none;stroke: #fff;stroke-linecap: round;stroke-linejoin: round;stroke-width: 15px"/>
    <path d="M493.05,410.73a75.68,75.68,0,0,1,9.81,7.92c11.14,11.22,14.2,27.91,16.73,43.51" style="fill: none;stroke: #fff;stroke-linecap: round;stroke-linejoin: round;stroke-width: 15px"/>
    <path d="M537.16,693A107.84,107.84,0,0,0,576,724.36c31.2,14.75,60.28,9.74,70.2,7.56" style="fill: none;stroke: #fff;stroke-linecap: round;stroke-linejoin: round;stroke-width: 11px"/>
  </g>
</svg>
