<svg xmlns="http://www.w3.org/2000/svg" viewBox="0 0 1000 1000">
  <title>іконки 2 [Восстановлен]</title>
  <g id="Слой_8" data-name="Слой 8">
    <path d="M659.24,323.37c-4.06,14.47-6.6,30.51-.2,44.1,1.77,3.76,4.2,7.23,5.41,11.21,3.8,12.49-6,25.84-18.18,30.61-7,2.76-14.54,3.41-22.13,3.13l-.49-5.24c-1.36-14.36-2.95-29.42-11.06-41.35-5.89-8.66-14.7-14.86-23.67-20.26-62.92-37.85-147-42.67-209.33-3.79-16.43,10.26-31,23.15-46.75,34.51q-4.14,3-8.37,5.85c-15.14-.05-30.28.31-45.43,1.16-30,1.69-60.63,5.22-89.82-2-16.95-4.19-32.8-11.88-48.5-19.52a35.27,35.27,0,0,1-5.07-2.82c-.28-.2-.56-.41-.83-.63h0a14.41,14.41,0,0,1-1.16-1.06h0c-2.65-2.73-3.87-6.5-4.94-10.15a341.07,341.07,0,0,1-11.57-134.23c1.76-15.42,5.62-32.41,18.49-41.07,6.2-4.17,13.71-5.8,21.05-7.19a495.94,495.94,0,0,1,103.69-8.39c55.93,1.33,106,19,160.35,27.44,59.06,9.15,118.52-8.31,177.57-.59,27.84,3.65,54.56,13,81,22.4,9.55,3.37,20.3,7.94,23.36,17.59,3.25,10.26-3.88,20.59-10,29.44A236.4,236.4,0,0,0,659.24,323.37Z" style="fill: none;stroke: #fff;stroke-linecap: round;stroke-linejoin: round;stroke-width: 14px"/>
    <path d="M659.24,323.37c-4.06,14.47-6.6,30.51-.2,44.1,1.77,3.76,4.2,7.23,5.41,11.21,3.8,12.49-6,25.84-18.18,30.61-7,2.76-14.54,3.41-22.13,3.13l-.49-5.24c-1.36-14.36-2.95-29.42-11.06-41.35-5.89-8.66-14.7-14.86-23.67-20.26-62.92-37.85-147-42.67-209.33-3.79-16.43,10.26-31,23.15-46.75,34.51q-4.14,3-8.37,5.85c-15.14-.05-30.28.31-45.43,1.16-30,1.69-60.63,5.22-89.82-2-16.95-4.19-32.8-11.88-48.5-19.52a35.27,35.27,0,0,1-5.07-2.82c-.28-.2-.56-.41-.83-.63h0a14.41,14.41,0,0,1-1.16-1.06c-2.65-2.73-3.87-6.5-4.94-10.15a341.07,341.07,0,0,1-11.57-134.23c1.76-15.42,5.62-32.41,18.49-41.07,6.2-4.17,13.71-5.8,21.05-7.19a495.94,495.94,0,0,1,103.69-8.39c55.93,1.33,106,19,160.35,27.44,59.06,9.15,118.52-8.31,177.57-.59,27.84,3.65,54.56,13,81,22.4,9.55,3.37,20.3,7.94,23.36,17.59,3.25,10.26-3.88,20.59-10,29.44A236.4,236.4,0,0,0,659.24,323.37Z" style="fill: none;stroke: #fff;stroke-linecap: round;stroke-linejoin: round;stroke-width: 14px"/>
    <path d="M699.14,216.75a16.93,16.93,0,0,1,7.35,5.11c4.72,5.79,4.3,13.44,3.15,17.38-1.75,6-5.14,11.33-6.95,17.27-3,9.92-1.47,20.75-4.17,30.76-3.19,11.83-12.12,21.81-13.67,34-.84,6.6.58,13.28.22,19.91-.53,10-5,19.3-9.46,28.28q-5.6,11.34-11.17,22.68l-3.82,6.2" style="fill: none;stroke: #fff;stroke-linecap: round;stroke-linejoin: round;stroke-width: 14px"/>
    <path d="M292.25,158.81a51,51,0,0,0-8.44,1c-1.38.23-2.73.64-4.07,1s-2.67.8-4,1.29a80.43,80.43,0,0,0-14.8,7.37A165.86,165.86,0,0,0,247.31,179c-4.41,3.47-8.88,6.9-13.17,10.52a390.71,390.71,0,0,0-48,46.59c-3.58,4.23-7.07,8.52-10.32,12.93l-2.41,3.31c-.79,1.1-1.53,2.22-2.29,3.34s-1.43,2.23-2.14,3.37l-2.09,3.58a252.52,252.52,0,0,0-14.83,29.72c-8.69,20.51-14.49,42.3-18.52,64.9a148.2,148.2,0,0,1-.5-17.26,173.27,173.27,0,0,1,1.27-17.31,186.28,186.28,0,0,1,7.41-34.1,195.72,195.72,0,0,1,13.56-32.4l2.07-3.89c.76-1.31,1.53-2.64,2.33-3.92s1.6-2.55,2.43-3.78l2.51-3.68c3.46-4.8,7.12-9.39,10.88-13.89a267.26,267.26,0,0,1,52-46.29c2.38-1.65,4.79-3.26,7.26-4.78s4.86-3.11,7.39-4.57a133.09,133.09,0,0,1,15.64-8,71.68,71.68,0,0,1,17-5A44.9,44.9,0,0,1,292.25,158.81Z" style="fill: #fff"/>
    <path d="M273.21,358.23a65.8,65.8,0,0,0,7.57-11.74,97.08,97.08,0,0,0,5-12.92c2.64-8.88,4.43-18,6.36-27.24,1-4.62,2-9.27,3.28-13.9a103.79,103.79,0,0,1,11.39-26.84,129.45,129.45,0,0,1,8.25-12.09q4.51-5.76,9.5-11.07c3.35-3.5,6.84-6.86,10.42-10.1s7.3-6.31,11.07-9.28,7.63-5.81,11.52-8.58c15.6-11.06,31.94-20.65,47.85-30.38a7,7,0,0,1,.9-.46l.32-.12,3.35-1.34c1.11-.45,2.24-.86,3.34-1.34l6.56-3,.14-.07a7,7,0,0,1,8.52,10.38,52.24,52.24,0,0,0-7.09,13.71A46,46,0,0,0,419,216.94l0,2.13,0,1.19,0,1.24-.17,4.37-.32,8.73q-.35,8.7-.46,17.35a302.32,302.32,0,0,0,1.31,34.27q.83,8.47,2.43,16.78a168.53,168.53,0,0,0,4.08,16.36l-5.13-3.91a2.58,2.58,0,0,0,1.37-.24,5.32,5.32,0,0,0,1.78-1.34,9.48,9.48,0,0,0,1.51-2.29,7.87,7.87,0,0,0,.49-1.3,16,16,0,0,0,.36-1.58,37.37,37.37,0,0,0,.25-7.79c-.06-1.46-.13-3-.15-4.59s0-3.11.06-4.67a85.54,85.54,0,0,1,.84-9.33c.44-3.07,1-6.05,1.6-9s1.15-5.79,1.63-8.6.87-5.72,1.23-8.62c1.43-11.62,2.39-23.42,3.22-35.21.46-5.9.86-11.81,1.25-17.72l1.24-17.75c.42,5.92.73,11.84,1,17.77s.48,11.86.65,17.79.22,11.88.23,17.83,0,11.91-.34,17.91c-.14,3-.32,6-.61,9s-.67,6-1.06,8.95-.74,5.8-1,8.61-.28,5.58-.24,8.39c0,1.39.1,2.83.18,4.21s.24,2.78.38,4.27a47,47,0,0,1,.17,9.94,23.66,23.66,0,0,1-.48,2.77,20,20,0,0,1-.92,2.9,20.2,20.2,0,0,1-3.11,5.25,16.59,16.59,0,0,1-5.08,4.21A14.22,14.22,0,0,1,420,327a5.67,5.67,0,0,1-5.07-3.76l-.06-.15a170.88,170.88,0,0,1-8.3-35.34c-.43-3-.68-6-1-9s-.52-6-.65-9c-.39-6-.47-11.93-.53-17.87s.06-11.85.2-17.74l.28-8.81L405,221l0-.95v-3.27a64.51,64.51,0,0,1,.79-9.77,58.18,58.18,0,0,1,2.44-9.62,66.12,66.12,0,0,1,9.05-17.31L426,190.36l-7.24,3.23c-1.21.53-2.45,1-3.69,1.45l-3.7,1.4,1.22-.58c-16.24,9.65-32.5,18.74-47.89,28.92s-29.93,21.41-41.81,35.06q-4.41,5.15-8.27,10.69a108.44,108.44,0,0,0-6.89,11.61,105,105,0,0,0-5.35,12.48c-1.54,4.32-3,8.74-4.33,13.21s-2.7,9-4.13,13.51-3.07,9-4.91,13.39a88.2,88.2,0,0,1-6.63,12.67A60.68,60.68,0,0,1,273.21,358.23Z" style="fill: #fff"/>
    <path d="M515,183.37a207.12,207.12,0,0,1,51.91,41.7l5.45,6.49c1.73,2.24,3.41,4.53,5.11,6.8s3.21,4.7,4.78,7.08,3,4.9,4.34,7.4A127.94,127.94,0,0,1,599.06,285c.31,1.41.64,2.82.92,4.25s.52,2.86.74,4.27c.45,2.81.83,5.55,1.2,8.25.69,5.42,1.46,10.67,2.41,15.9s2.06,10.42,3.31,15.61,2.68,10.35,4.28,15.47c6.21,20.56,14.84,40.46,24.86,60.16a179.32,179.32,0,0,1-20-26.59c-2.93-4.74-5.7-9.6-8.23-14.59s-4.9-10.07-7-15.26a199.1,199.1,0,0,1-10.25-32.17c-1.26-5.5-2.18-11.09-3.07-16.53-.42-2.71-.81-5.4-1.25-8-.23-1.29-.46-2.57-.71-3.82s-.58-2.52-.85-3.78c-.14-.63-.27-1.26-.42-1.89l-.51-1.87c-.35-1.24-.64-2.5-1-3.74-.79-2.46-1.54-4.94-2.48-7.36A141.23,141.23,0,0,0,574.86,259a184.21,184.21,0,0,0-16.5-27A304.74,304.74,0,0,0,537.85,207l-5.53-6-5.71-5.87-2.85-3-2.93-2.89C518.9,187.31,516.93,185.39,515,183.37Z" style="fill: #fff"/>
    <path d="M437.26,198A118.32,118.32,0,0,1,451.87,208a147.55,147.55,0,0,1,13.18,11.72,117.07,117.07,0,0,1,21.36,28.82c.72,1.35,1.34,2.78,2,4.17s1.23,2.86,1.75,4.34l.78,2.19.67,2,1.31,4c1.77,5.33,3.6,10.65,5.44,16C502,292,506,302.62,509.51,313.94a104.05,104.05,0,0,1-11.6-13.34,145.14,145.14,0,0,1-9.59-14.81A156.16,156.16,0,0,1,480.49,270c-.59-1.35-1.13-2.72-1.68-4.08l-.79-2-.76-1.83c-1-2.42-2.11-4.83-3.34-7.21-4.84-9.56-11-18.8-17.3-28.13S443.48,208.14,437.26,198Z" style="fill: #fff"/>
    <path d="M411.22,241.32a109.84,109.84,0,0,1-5.33,13c-2,4.19-4.17,8.26-6.44,12.26a242.24,242.24,0,0,1-15,23c-1.35,1.84-2.72,3.67-4.12,5.47l-4.14,5.2c-2.72,3.4-5.36,6.88-8,10.41s-5.24,7.16-7.89,10.85l-4,5.58c-1.35,1.88-2.72,3.79-4.2,5.68.2-9.59,2.79-18.85,6.54-27.58a89.19,89.19,0,0,1,6.71-12.62c1.26-2,2.66-4,3.94-5.83s2.63-3.72,4-5.55a239,239,0,0,1,17.38-21.09c3.12-3.35,6.34-6.63,9.74-9.79A110.15,110.15,0,0,1,411.22,241.32Z" style="fill: #fff"/>
    <path d="M603,183.74a37.06,37.06,0,0,1,20.88,12.54,34.65,34.65,0,0,1,4.68,7.41c2.45,5.24,3.81,10.1,5.56,14.49A114.46,114.46,0,0,0,640,231a128,128,0,0,0,7.38,12.14c2.69,4,5.64,7.9,8.64,12l4.43,6.12c1.48,2,3,4.05,4.49,6.07l4.59,6.15c1.54,2.07,3.11,4.14,4.63,6.33a74.23,74.23,0,0,1-14-7.48c-2.18-1.48-4.32-3-6.38-4.69-1.05-.81-2.05-1.67-3.05-2.54s-2-1.68-2.92-2.57a106.7,106.7,0,0,1-11.09-11.37,79.73,79.73,0,0,1-9.13-13.59,74.67,74.67,0,0,1-6.11-15.28c-1.51-5.28-2.22-10.45-3.25-14.81C616.46,199,610.66,191,603,183.74Z" style="fill: #fff"/>
    <path d="M42.27,635.28c9.37,11.27,17.32,15,21.76,28,1.35,4,1.84,8.17,3.45,12,3.71,8.82,12.71,14.23,21.7,17.5s18.59,5.07,27,9.69c19.51,10.75,30.55,35.63,52.37,40.14,12.24,2.54,24.81-2.25,37.31-1.87,6.53.2,13,1.82,19.5,2,18.73.53,38.1-10.54,55.37-3.27,2.83-5.75,1.47-12.76-1.44-18.46S272,710.5,268.54,705.12c-6-9.29-9.49-20.28-17.11-28.29-5.52-5.78-12.8-9.58-18.62-15.05-6.25-5.89-10.57-13.49-16.24-19.93-13.27-15.09-33.33-22.94-53.31-25-8.1-.82-16.32-.79-24.24-2.64s-15.77-6-19.88-13c-1.28-2.19-2.26-4.73-4.36-6.16a12.24,12.24,0,0,0-5.23-1.59l-42.19-6.23c-14.2-2.1-19.86-4.87-30.49-2.73-4.85,1-7.38,1.52-9.3,3.74C20.34,596.67,29.57,620,42.27,635.28Z" style="fill: none;stroke: #fff;stroke-linecap: round;stroke-linejoin: round;stroke-width: 14px"/>
    <path d="M144.59,616.83a30.25,30.25,0,0,0-1.45,11.36,45.51,45.51,0,0,0,2.14,10.93,104.85,104.85,0,0,0,4,10.56l1.17,2.61.59,1.32.29.66.31.73c.41,1,.82,2,1.18,2.92s.72,1.9,1.05,2.82c1.36,3.72,2.65,7.32,4,10.83s2.83,6.95,4.48,10.26l1.22,2.48,1.3,2.43c.82,1.64,1.82,3.17,2.74,4.74s2,3,2.95,4.57,2.15,2.91,3.23,4.35a94.69,94.69,0,0,0,34,26.72,121.84,121.84,0,0,0,21.2,7.71A167.27,167.27,0,0,0,252,739c-15.48,4.1-32.39,3.38-48.22-1.67a88.25,88.25,0,0,1-22.51-11c-1.72-1.22-3.39-2.51-5.09-3.77s-3.21-2.76-4.82-4.15-3-3-4.47-4.54-2.77-3.23-4.15-4.85-2.51-3.42-3.71-5.16l-1.7-2.67c-.56-.9-1.16-1.77-1.64-2.71-1-1.85-2-3.68-2.92-5.58l-1.35-2.83c-.43-1-.81-1.92-1.2-2.88-.83-1.92-1.48-3.88-2.2-5.82s-1.29-3.91-1.84-5.87c-1.17-3.92-2-7.86-2.91-11.68l-.63-2.82c-.2-.95-.41-1.81-.63-2.68l-.16-.66-.2-.73-.4-1.46c-.27-1-.49-2-.74-3a80.44,80.44,0,0,1-2-12.2,42,42,0,0,1,.73-12.5A25.67,25.67,0,0,1,144.59,616.83Z" style="fill: #fff"/>
    <path d="M86.16,590a97.23,97.23,0,0,1-48.41,39.52l2.24-.34" style="fill: none;stroke: #fff;stroke-linecap: round;stroke-linejoin: round;stroke-width: 14px"/>
    <path d="M142,617.63c.19,5.71.07,11.25.05,16.75s-.11,10.93-.1,16.33c0,10.79.19,21.47.78,32.1s1.43,21.09,3.88,30.89c.31,1.23.66,2.42,1,3.63l.6,1.77.65,1.74a41.55,41.55,0,0,0,3.38,6.73,71.15,71.15,0,0,0,4.52,6.57c1.67,2.15,3.48,4.24,5.4,6.36a41.87,41.87,0,0,1-15.12-8.43,38.4,38.4,0,0,1-6.19-6.69,47.65,47.65,0,0,1-4.58-7.88,74.33,74.33,0,0,1-5.41-16.83,120.58,120.58,0,0,1-2.12-17.12,141,141,0,0,1,2.28-33.9A112.15,112.15,0,0,1,142,617.63Z" style="fill: #fff"/>
    <path d="M626.87,473.34c-.76,18-3.61,36.13-11.54,52.26s-21.42,30.09-38.51,35.64c-10.28,3.34-21.31,3.55-31.82,6.07-11.59,2.77-22.31,8.29-32.89,13.75l-45.85,23.67c-7.35,3.79-14.83,7.68-20.56,13.64-4.83,5-8.16,11.22-11.54,17.3-13.56,24.41-29.2,48-48.55,68.23-1.81,1.89-3.64,3.75-5.51,5.57,6.31-8.88,7-16,6.51-20.56l-.09-.79a47.94,47.94,0,0,0-2.17-8c-1.58-4.78-3.56-9.46-5.23-14.22-7.21-20.72-8.26-43-10-64.85-2.09-26.14-1.79-82.43-27.68-129-5.92-10.67-16.95-27.68-22.28-54.24a150.79,150.79,0,0,1-2.94-30.22q4.17-2.62,8.25-5.38t8.37-5.85c15.7-11.36,30.32-24.25,46.75-34.51,62.3-38.88,146.41-34.06,209.33,3.79,9,5.4,17.78,11.6,23.67,20.26,8.11,11.93,9.7,27,11.06,41.35l.49,5.24C626,432.69,627.73,453,626.87,473.34Z" style="fill: none;stroke: #fff;stroke-linecap: round;stroke-linejoin: round;stroke-width: 14px"/>
    <path d="M281,724.73a90,90,0,0,1,3.38,13.84c.67,4.17.67,6.94,2.9,9.52,1.71,2,4.41,2.8,6.43,4.48,4.89,4,4.41,11.55,3.51,17.84a25.77,25.77,0,0,0,18.59-11.74c1.56-2.5,2.69-5.26,4.44-7.63,6.92-9.34,23.86-13.53,33.46-20a186.38,186.38,0,0,0,26.38-21.6" style="fill: none;stroke: #fff;stroke-linecap: round;stroke-linejoin: round;stroke-width: 14px"/>
    <path d="M25.92,590.31c.32-9.33,8.08-16.78,16.33-21.15s17.53-6.79,25.25-12c18.45-12.57,23.31-37.34,36.22-55.56,12.46-17.58,32.09-28.52,51.5-37.89,53.51-25.82,111-44.49,161-76.14" style="fill: none;stroke: #fff;stroke-linecap: round;stroke-linejoin: round;stroke-width: 14px"/>
    <path d="M587.27,644.41l1.69,1.36a18.78,18.78,0,0,0,1.66,1.28,29.62,29.62,0,0,0,3.48,2.14,30.42,30.42,0,0,0,7.3,2.68,54.64,54.64,0,0,0,7.7,1.22c1.31.12,2.63.21,3.95.29l4.06.18,16.55.6,8.24.26c2.75.07,5.5.15,8.17.18s5.29,0,7.82-.12c1.27-.05,2.5-.16,3.73-.29.63-.07,1.21-.13,1.77-.22l1.91-.31,1.89-.35.92-.18c.31-.07.6-.13.81-.19a12.07,12.07,0,0,0,1.46-.41A14.32,14.32,0,0,0,672,652a51.08,51.08,0,0,0,6.63-3.36,147.21,147.21,0,0,0,13.33-9.19c4.44-3.34,8.81-6.9,13.46-10.41a80.13,80.13,0,0,1-8.5,15.17,76.9,76.9,0,0,1-11.75,13.29,47.91,47.91,0,0,1-7.65,5.57,25.21,25.21,0,0,1-2.26,1.18,22.88,22.88,0,0,1-2.5,1c-.45.17-.83.3-1.2.42l-1.12.35c-.74.22-1.48.42-2.21.62s-1.47.38-2.22.54-1.62.34-2.39.48c-1.55.27-3.11.46-4.65.61a86.29,86.29,0,0,1-9,.32c-2.95,0-5.82-.18-8.69-.38s-5.73-.47-8.58-.82a162.46,162.46,0,0,1-17-3c-5.64-1.28-11.63-3.06-16.95-6.27a28.35,28.35,0,0,1-7.09-6,24.22,24.22,0,0,1-2.56-3.73,16.17,16.17,0,0,1-1-2C587.79,645.76,587.52,645.08,587.27,644.41Z" style="fill: #fff"/>
    <path d="M632,759.44c3.12-5.85,6.51-11.41,9.9-16.94s6.86-11,10.34-16.35c7-10.78,14-21.43,21.09-32.06s14.21-21.21,21.48-31.79c3.66-5.28,7.33-10.57,11.13-15.83s7.64-10.51,11.86-15.63a155.38,155.38,0,0,1-5.79,18.87c-2.28,6.14-4.87,12.16-7.66,18.08A270,270,0,0,1,685,701.86a273.37,273.37,0,0,1-24,31c-4.39,4.84-9,9.54-13.75,14A156.18,156.18,0,0,1,632,759.44Z" style="fill: #fff"/>
    <path d="M745.9,672.78c.49,7,1.17,13.82,2.2,20.53s2.3,13.32,3.72,19.93,2.94,13.23,4.46,19.9c.77,3.31,1.46,6.75,2.21,10a75.09,75.09,0,0,0,2.4,9.1,26.6,26.6,0,0,0,3.59,7.26,36,36,0,0,0,6,6.23l1.87,1.62.94.79.74.59a26.84,26.84,0,0,0,7.34,3.94c.67.26,1.36.5,2.07.7l1.13.32,1.12.29a38.08,38.08,0,0,0,4.32.82,24.87,24.87,0,0,0,4.22.12,19.89,19.89,0,0,0,4.11-.72,15.71,15.71,0,0,0,2-.78l2.31-1,4.74-2.12c1.59-.68,3.18-1.43,4.88-2.08a36.66,36.66,0,0,1,10.45-2.39,59.2,59.2,0,0,0-8.5,5.77l-3.92,3.35c-1.33,1.12-2.68,2.22-4,3.33-.68.55-1.38,1.09-2.1,1.64a24.15,24.15,0,0,1-2.5,1.71A25.35,25.35,0,0,1,796,784a32.9,32.9,0,0,1-12,.9l-1.42-.16c-.44-.05-.89-.1-1.4-.18-1-.14-2-.32-3-.53a39.48,39.48,0,0,1-5.79-1.8,32.56,32.56,0,0,1-5.59-2.82c-.45-.29-.9-.59-1.35-.91l-1.11-.8-2.18-1.59a45.65,45.65,0,0,1-8.7-8.24,39.59,39.59,0,0,1-5.78-11.05,81.15,81.15,0,0,1-2.7-10.92c-.59-3.49-1.19-6.82-1.69-10.28-1-6.87-1.9-13.84-2.31-20.89a132.23,132.23,0,0,1,.31-21.24A81.73,81.73,0,0,1,745.9,672.78Z" style="fill: #fff"/>
    <path d="M756.28,647.56a44.94,44.94,0,0,0,2.9,5.61,46.55,46.55,0,0,0,3.61,5,64.81,64.81,0,0,0,8.75,8.46c6.31,5.16,13.29,9.71,20.15,15a97.82,97.82,0,0,1,10,8.84,61.07,61.07,0,0,1,8.57,11c2.43,3.88,4.36,7.82,6.29,11.53a115.81,115.81,0,0,0,5.73,10.42,34.63,34.63,0,0,0,6.66,8l1.92,1.49a12,12,0,0,0,1.73,1,5.92,5.92,0,0,0,1.27.46,2.81,2.81,0,0,0,.88.05,8.42,8.42,0,0,0,3.37-1.46c.72-.44,1.48-1,2.32-1.57l2.56-1.81L848.1,726q2.55-1.8,5-3.65a153,153,0,0,0,18.67-15.84,81.72,81.72,0,0,0,7.9-9.37A75.71,75.71,0,0,0,886,686.27,49.49,49.49,0,0,1,883.15,699a65.54,65.54,0,0,1-5.94,11.8,109.64,109.64,0,0,1-17,20c-3.14,3-6.36,5.84-9.61,8.61l-2.43,2.07c-.83.71-1.75,1.44-2.77,2.19a21.79,21.79,0,0,1-8,3.87,15.57,15.57,0,0,1-5.41.24,18.64,18.64,0,0,1-4.79-1.32,26.15,26.15,0,0,1-3.81-2c-1.09-.74-2.14-1.48-3.18-2.26A46.94,46.94,0,0,1,810.51,731c-5-8-8-16-11.66-22.8a58.06,58.06,0,0,0-6.29-9.44,118,118,0,0,0-8.12-8.82c-5.79-5.83-12.23-11.62-17.79-18.48-1.37-1.72-2.69-3.51-3.91-5.37a49.46,49.46,0,0,1-3.24-5.83,39.26,39.26,0,0,1-2.26-6.22A34.82,34.82,0,0,1,756.28,647.56Z" style="fill: #fff"/>
    <path d="M586.54,667.15a101.33,101.33,0,0,0,2.56,19.07c3.35,14.38,7.71,18.73,21.84,46.26,8.51,16.59,9.9,19.4,15,24.52,6.79,6.83,16.71,11.3,26.11,9.19,5.1-1.14,9.71-4.11,14.88-4.85s11.62,2.13,11.77,7.36c0,1.68-.57,3.37-.2,5,.79,3.53,5.29,4.53,8.91,4.7a190.73,190.73,0,0,0,40.85-2.4c8.49-1.43,17.07-3.43,25.62-2.41,13.57,1.64,26.67,10.8,39.85,7.18,6.55-1.81,11.82-6.54,17.71-9.93,11-6.32,24-7.88,36.05-11.7s24.45-11.24,27.94-23.42c8.62,7.07,23.09,1.62,27.6-8.57s1-22.47-5.84-31.31c-6.29-8.18-15-14.14-23.92-19.36a278.07,278.07,0,0,0-53.35-23.67C781.2,640,740.59,634.18,700.23,628.4l-33.52-4.8a67.33,67.33,0,0,0-17.46-.73,63.49,63.49,0,0,0-24,7.29" style="fill: none;stroke: #fff;stroke-linecap: round;stroke-linejoin: round;stroke-width: 14px"/>
    <path d="M586.9,673a164.82,164.82,0,0,1,1.49-37.46c5-32,16.17-40.85,37.79-95.48,3.65-9.21,7.31-18.45,12.18-27.08,5.34-9.46,12.09-18.1,17-27.82,7.51-14.94,10.27-31.8,16.36-47.38,6.38-16.36,16.31-31.05,26.15-45.59l29.77-44a81.38,81.38,0,0,1,30.94-27.6c18.58-9.83,38.53-19.13,59.54-18.36,14.86.56,29,6.15,42.64,12.16a609.57,609.57,0,0,1,86.78,47.07c4.68,3.05,9.42,6.26,12.68,10.79,4.31,6,5.59,13.54,6.75,20.8,4.24,26.56,8.42,54.14,1,80-1.65,5.73-3.88,11.39-4.21,17.34-.38,7.05,1.92,13.93,3.23,20.86,3.6,19-.32,38.8-7.33,56.84s-17,34.72-26.2,51.76c-2.64,4.91-5.23,9.89-6.72,15.26-2.23,8-1.89,16.49-2.26,24.81a144.67,144.67,0,0,1-20.76,68.37l-4.27,4.11" style="fill: none;stroke: #fff;stroke-linecap: round;stroke-linejoin: round;stroke-width: 14px"/>
    <path d="M380.1,709.47l-.43.59" style="fill: none;stroke: #fff;stroke-linecap: round;stroke-linejoin: round;stroke-width: 14px"/>
    <path d="M316.22,387.52v-.22" style="fill: none;stroke: #fff;stroke-linecap: round;stroke-linejoin: round;stroke-width: 14px"/>
    <path d="M234.43,428.75a66.64,66.64,0,0,0-7.91,5.32,45.94,45.94,0,0,0-6.74,6.38,32.27,32.27,0,0,0-7.57,15.76,35.6,35.6,0,0,0-.41,8.63,51.74,51.74,0,0,0,1.47,8.66,87.87,87.87,0,0,0,6.45,16.85c5.4,11,12.25,21.48,19.15,32.21q2.61,4,5.15,8.18c1.73,2.77,3.34,5.66,5,8.51.85,1.41,1.55,2.9,2.32,4.36s1.53,2.91,2.25,4.39l2.11,4.46c.7,1.49,1.42,3,2.05,4.5,2.58,6,5,12.19,7,18.42,1,3.13,2.06,6.23,2.88,9.41l1.3,4.74.65,2.37.54,2.39a243,243,0,0,1,6,38.63l.4,4.86c.09,1.62.13,3.24.2,4.87.11,3.24.3,6.47.3,9.71-.05,6.48,0,12.94-.5,19.39a285.72,285.72,0,0,1-4.71,38.31c-.21-3.22-.31-6.42-.47-9.62s-.19-6.38-.43-9.57l-.54-9.54c-.15-3.17-.49-6.34-.73-9.5-.38-6.33-1.19-12.61-1.8-18.89-.38-3.13-.84-6.25-1.24-9.37-.21-1.56-.39-3.12-.64-4.68l-.77-4.64c-.93-6.22-2.24-12.35-3.44-18.48-.72-3-1.45-6.07-2.13-9.12s-1.6-6-2.39-9c-1.7-6-3.49-11.94-5.6-17.78s-4.3-11.62-6.77-17.3c-.57-1.44-1.24-2.83-1.88-4.23l-1.94-4.22c-1.38-2.76-2.77-5.53-4.2-8.27s-2.91-5.45-4.49-8.14l-4.8-8.18c-3.22-5.51-6.52-11.08-9.55-16.86a168.17,168.17,0,0,1-8.37-17.9,97.91,97.91,0,0,1-3.23-9.53,70.12,70.12,0,0,1-2.16-10,56.72,56.72,0,0,1-.54-10.36,41.44,41.44,0,0,1,1.84-10.34,35.67,35.67,0,0,1,4.58-9.38,37.16,37.16,0,0,1,6.92-7.49A49.07,49.07,0,0,1,234.43,428.75Z" style="fill: #fff"/>
    <path d="M335.39,381.48a91,91,0,0,1,20.75-7A146.17,146.17,0,0,1,378,371.69c7.32-.45,14.63-.52,21.89-.46s14.52.2,21.87.65a180.29,180.29,0,0,1,22.13,2.61,144.31,144.31,0,0,1,21.81,5.82,155,155,0,0,1,20.68,9.05A163.66,163.66,0,0,1,505.5,401.3,158.1,158.1,0,0,1,560,471.52a142.79,142.79,0,0,1,6.4,21.45,167.63,167.63,0,0,1,3.12,21.92c.56,7.31.76,14.61.69,21.87s-.37,14.51-.81,21.75c-2.17-14.34-3.84-28.71-6.7-42.67-.72-3.49-1.45-7-2.34-10.38s-1.79-6.82-2.86-10.16a155.21,155.21,0,0,0-7.63-19.46,166.66,166.66,0,0,0-52.59-63.22,158.45,158.45,0,0,0-17.46-11.11,155.71,155.71,0,0,0-18.73-8.78,152.59,152.59,0,0,0-19.74-6.19c-3.36-.84-6.78-1.49-10.23-2.12s-6.93-1.16-10.44-1.63c-7-1-14.14-1.67-21.3-2.41s-14.27-1.45-21.38-1.85C363.79,377.64,349.51,378,335.39,381.48Z" style="fill: #fff"/>
    <path d="M99.46,508a49.89,49.89,0,0,0-4,15c-.83,8,.53,14.09,3.28,26a180.29,180.29,0,0,0,5.08,18.55,173.52,173.52,0,0,0,14.38,31.69" style="fill: none;stroke: #fff;stroke-linecap: round;stroke-linejoin: round;stroke-width: 14px"/>
    <path d="M532.25,436.08c9.26,3.57,17.76,7.55,26.32,11.09,4.25,1.82,8.51,3.51,12.78,5.24s8.63,3.43,13.08,5.4A86,86,0,0,1,597.72,465a60.76,60.76,0,0,1,11.65,10.15,56.48,56.48,0,0,1,13.48,26.6c-1.83-1.71-3.51-3.45-5.23-5.11s-3.42-3.28-5.15-4.82a121.28,121.28,0,0,0-10.53-8.55,100.43,100.43,0,0,0-11.12-6.91c-3.82-2-7.85-3.85-12.09-5.74-8.48-3.73-17.56-8.08-25.54-13.87-1-.68-2-1.45-3-2.2s-2-1.5-2.89-2.29c-1.87-1.61-3.73-3.21-5.49-4.93A73.28,73.28,0,0,1,532.25,436.08Z" style="fill: #fff"/>
    <path d="M665.68,465.19a115.73,115.73,0,0,1,33.58-31.41,120.1,120.1,0,0,1,21-10.42,113.2,113.2,0,0,1,22.91-6.13,104.26,104.26,0,0,1,24-1.05A97.23,97.23,0,0,1,791,420.93c7.79,2.57,14.88,6.25,21.64,9.72,3.39,1.75,6.68,3.53,10,5.14s6.51,3.08,9.87,4.4c6.68,2.71,13.72,4.93,20.94,7.13s14.58,4.45,21.94,7.24a167.07,167.07,0,0,1,41.21,22.55c3.15,2.33,6.19,4.78,9.17,7.39a97.21,97.21,0,0,1,8.51,8.36A72.66,72.66,0,0,1,947.08,513a107.12,107.12,0,0,1,6.62,22.36q1,5.67,1.82,11.34c.46,3.79.92,7.57,1.25,11.37l-3.32-10.92c-1.1-3.63-2.25-7.23-3.5-10.78a122,122,0,0,0-9-20.29,67.91,67.91,0,0,0-6-9,64.88,64.88,0,0,0-7.26-7.85,125.1,125.1,0,0,0-17.39-13.15c-3.08-2-6.23-3.89-9.43-5.67s-6.43-3.51-9.72-5.1a179.89,179.89,0,0,0-20.26-8.31c-6.92-2.36-14.11-4.39-21.43-6.5s-14.78-4.44-22.17-7.38c-3.69-1.48-7.38-3.18-10.87-4.95s-6.9-3.58-10.22-5.39a151.16,151.16,0,0,0-19.58-9.42,91.52,91.52,0,0,0-20.55-5,99.73,99.73,0,0,0-10.67-.71c-1.79-.06-3.59,0-5.38,0s-3.6.15-5.39.36c-3.59.29-7.17.83-10.75,1.45s-7.12,1.48-10.63,2.49a127.36,127.36,0,0,0-20.63,7.72,139.47,139.47,0,0,0-19.33,11.12c-3.08,2.13-6.1,4.37-9,6.78S668.49,462.61,665.68,465.19Z" style="fill: #fff"/>
    <path d="M660.47,477.23a18,18,0,0,1,6.42-2.88,30.1,30.1,0,0,1,7.14-.71c4.77,0,9.38.76,13.74,1,8.49.73,16.58-1.42,25.47-3.63a112.88,112.88,0,0,1,14-2.74c1.23-.13,2.47-.28,3.75-.33.64,0,1.27-.09,1.91-.09l1.94,0h1l1,.08,1.94.17,1.95.18,1.92.34a53.4,53.4,0,0,1,14.6,4.81,79.8,79.8,0,0,1,12.67,7.89A126.36,126.36,0,0,1,780.68,491q5,5.07,9.5,10.39c3,3.55,5.89,7.09,8.7,10.65l4.24,5.35,4.18,5.39q4.17,5.41,8.24,10.9c2.71,3.65,5.43,7.33,8,11.22a73,73,0,0,1,6.8,12.4,44.84,44.84,0,0,1,2.17,6.74,34.93,34.93,0,0,1,.8,6.94c-3.08-8.74-8.89-15.43-15.12-21.75-3.11-3.17-6.42-6.3-9.64-9.53s-6.44-6.44-9.61-9.71l-4.75-4.91-4.68-5c-3.15-3.29-6.17-6.67-9.25-9.86a166.06,166.06,0,0,0-19-17.73A69,69,0,0,0,751,485.84c-.89-.44-1.77-.94-2.68-1.33l-2.74-1.15a51.48,51.48,0,0,0-5.61-1.68l-1.42-.36-1.44-.21-1.45-.22-.72-.11-.73,0c-1-.08-2-.15-3-.16s-2,0-3,0c-4.12.14-8.47.69-13,1.26a132.69,132.69,0,0,1-14.05,1.25l-1.82,0-1.84-.05c-1.21,0-2.46-.15-3.68-.26s-2.47-.35-3.68-.55-2.4-.5-3.55-.82c-4.6-1.24-8.8-2.86-13.06-3.94S664.92,475.85,660.47,477.23Z" style="fill: #fff"/>
    <path d="M702.71,431.37a53.2,53.2,0,0,1,9.49-7.77,104.57,104.57,0,0,1,10.71-6c3.65-1.79,7.32-3.45,10.92-5.09s7.09-3.32,10.6-5.06c14-6.92,27.65-14.71,41.68-22.27,3.53-1.87,7-3.7,10.33-5.58s6.56-3.79,9.56-5.85a59.62,59.62,0,0,0,8.26-6.75c.6-.63,1.23-1.23,1.78-1.9l.85-1,.79-1a22.69,22.69,0,0,0,1.56-2.09c.46-.74,1-1.43,1.42-2.21,3.68-6,5.86-13.21,7.09-20.74a118.46,118.46,0,0,0,1-23.58,68.69,68.69,0,0,1,4,11.57,67,67,0,0,1,1.93,12.3,61.35,61.35,0,0,1-.54,12.74,49.24,49.24,0,0,1-3.59,12.66,48.43,48.43,0,0,1-7,11.5,61.62,61.62,0,0,1-9.54,9.18,107.15,107.15,0,0,1-10.53,7.13c-3.58,2.12-7.14,4-10.63,5.95-14.06,7.55-28.64,14.77-44.11,20.07-1.92.69-3.88,1.28-5.83,1.89s-3.92,1.17-5.89,1.67c-3.92,1-7.81,1.94-11.64,2.89s-7.64,1.93-11.41,3.09A95.56,95.56,0,0,0,702.71,431.37Z" style="fill: #fff"/>
    <path d="M811.22,437.52a141.87,141.87,0,0,1,16.11,0c5.32.27,10.61.76,15.87,1.37s10.5,1.52,15.5,2.35c1.25.2,2.45.39,3.59.53a24.37,24.37,0,0,0,3,.21,20.65,20.65,0,0,0,3-.23c.53-.08,1.07-.12,1.59-.21l1.54-.3a29.3,29.3,0,0,0,5.9-2c2-.89,4.16-2.09,6.61-3.35a56.72,56.72,0,0,1,8-3.44c1.39-.5,2.84-.87,4.27-1.23s2.88-.61,4.32-.81a49.22,49.22,0,0,1,32.37,6.79c-2.75.06-5.4.05-8,.15s-5.17.29-7.67.59A65,65,0,0,0,903,441.18a53,53,0,0,0-6.39,2.76,70.15,70.15,0,0,0-6.11,3.56c-2.11,1.33-4.44,2.86-7.17,4.25a38.11,38.11,0,0,1-8.93,3.21l-2.33.43c-.77.11-1.54.19-2.31.27a30.84,30.84,0,0,1-4.87.16,34.18,34.18,0,0,1-4.8-.6c-1.45-.3-2.83-.61-4.14-1-5.26-1.38-10.2-2.95-15.2-4.63s-10-3.4-14.9-5.38A142.05,142.05,0,0,1,811.22,437.52Z" style="fill: #fff"/>
    <path d="M894.11,470.14a55.6,55.6,0,0,1,11.52,9.69,70.43,70.43,0,0,1,9,12.23A89.07,89.07,0,0,1,925,520.51a119.75,119.75,0,0,1,1.8,29.68,138,138,0,0,1-1.64,14.64c-.42,2.42-.87,4.84-1.43,7.25s-1.16,4.81-1.94,7.21c-2.95-9.61-4.43-19.19-6-28.56s-2.81-18.6-4.55-27.6a216.81,216.81,0,0,0-6.61-26.52A253.91,253.91,0,0,0,894.11,470.14Z" style="fill: #fff"/>
    <path d="M642.7,514.36a91.7,91.7,0,0,1,8.6,9.59c2.63,3.32,5.06,6.73,7.38,10.2s4.5,7,6.57,10.61,4,7.29,5.85,11.17c3.6,7.73,6.53,16.3,7.13,25.39a45.69,45.69,0,0,1-1.06,13.5,30.25,30.25,0,0,1-5.68,12,76.93,76.93,0,0,0-4.09-23.55,204.62,204.62,0,0,0-9-21.47A233.91,233.91,0,0,1,648.86,539c-1.36-3.94-2.62-7.94-3.69-12A93.57,93.57,0,0,1,642.7,514.36Z" style="fill: #fff"/>
    <path d="M324.13,424.07c16.76,6.22,33.5,10.49,50.54,15.19,8.5,2.37,17.05,4.9,25.54,7.94,2.12.74,4.24,1.52,6.34,2.39s4.22,1.66,6.3,2.6,4.18,1.83,6.23,2.89l3.08,1.54,1.54.78,1.51.84,3,1.72c1,.57,2,1.12,3,1.82l3,2,1.5,1c.49.33.95.72,1.43,1.09a79.3,79.3,0,0,1,10.6,9.71,75.33,75.33,0,0,1,14.79,24.32,79.24,79.24,0,0,1,4.92,27.39A81.13,81.13,0,0,1,463,554a133.12,133.12,0,0,0-2.42-26,91,91,0,0,0-8.16-23.66,77.23,77.23,0,0,0-14.3-19.55,73.53,73.53,0,0,0-9.22-7.76c-.41-.29-.78-.62-1.21-.89l-1.27-.82-2.55-1.63c-.82-.57-1.75-1.07-2.67-1.58l-2.75-1.53c-14.76-8.12-31-14.17-47.38-20.87-8.17-3.38-16.39-6.92-24.36-11.05A128.17,128.17,0,0,1,324.13,424.07Z" style="fill: #fff"/>
    <path d="M323.15,382a37.86,37.86,0,0,1,10.21,2.36,77.94,77.94,0,0,1,9.55,4.36c3.06,1.62,6,3.31,8.91,4.89s5.83,3.17,8.78,4.71c11.75,6.22,23.82,12.15,35.6,19.28s23.27,15.54,32.69,26.14A86.88,86.88,0,0,1,441,461.17a59.33,59.33,0,0,1,6.35,19.95,115.13,115.13,0,0,0-12-16.06,135.07,135.07,0,0,0-14.12-13.39c-10-8.26-20.91-15.19-32.29-22.07s-23.09-13.74-34.2-22c-1.39-1-2.75-2.08-4.11-3.16s-2.71-2.16-4-3.3c-2.67-2.23-5.15-4.56-7.63-6.82C334,389.81,329.17,385.47,323.15,382Z" style="fill: #fff"/>
    <path d="M670.77,448c9.74-14.08,28.2-18.51,45-21.89" style="fill: none;stroke: #fff;stroke-linecap: round;stroke-linejoin: round;stroke-width: 14px"/>
  </g>
</svg>
