<svg id="Слой_2" data-name="Слой 2" xmlns="http://www.w3.org/2000/svg" viewBox="0 0 1000 1000">
  <title>іконки 2 [Восстановлен]</title>
  <g>
    <path d="M338.72,678.88q-9.66-14.86-19.61-29.56" style="fill: none;stroke: #fff;stroke-linecap: round;stroke-linejoin: round;stroke-width: 15px"/>
    <path d="M317.67,647.15q-33-48.58-68.93-95" style="fill: none;stroke: #fff;stroke-linecap: round;stroke-linejoin: round;stroke-width: 15px"/>
    <path d="M317.32,650.2c.62.59,1.53-.05,1.79-.88" style="fill: none;stroke: #fff;stroke-linecap: round;stroke-linejoin: round;stroke-width: 15px"/>
    <path d="M243.35,642.59a160.44,160.44,0,0,1,73,4.08,9.51,9.51,0,0,1,1.28.48" style="fill: none;stroke: #fff;stroke-linecap: round;stroke-linejoin: round;stroke-width: 15px"/>
    <path d="M292.78,604.92C284,587.45,286,565,297.88,549.47" style="fill: none;stroke: #fff;stroke-linecap: round;stroke-linejoin: round;stroke-width: 15px"/>
    <g>
      <path d="M480.5,506.07a184,184,0,0,0-34.45-57.87c-38.41-44-96.3-70.48-155.11-75.42C113.69,358-40.77,571.84,77,724.63c40.86,53,116.51,72.1,180.45,73,21.92.32,44.81-2.16,64.89-11.24,11.43-5.15,23.4-13.16,31.51-22.73,6-7.18,10.15-16.58,9.14-25.77a64,64,0,0,0,7.1.62c27.32.69,50.74-12.63,69.09-31.41a161.68,161.68,0,0,0,22.89-30C492.54,626.3,500.9,562.1,480.5,506.07ZM397.07,629.58c-10.15,15-24.52,26.65-37.07,39.74-10.15,10.58-23.71,27.45-23.9,42.7v.06a31.08,31.08,0,0,0-3.93-.73l-1.12-.13c-20.75-1.87-41.23,8.57-61.21,12.85-20.21,4.32-40.91,5.28-61.13.53-29-6.7-55.92-22.59-74.88-45.61-24.49-29.7-34.18-70.59-28.17-108.45C124.11,454.34,303,388.24,385.4,479a122.4,122.4,0,0,1,21.76,33.94,124.87,124.87,0,0,1,7.53,74.38,118.37,118.37,0,0,1-15,38.21C398.86,626.91,398,628.25,397.07,629.58Z" style="fill: none;stroke: #fff;stroke-linecap: round;stroke-linejoin: round;stroke-width: 15px"/>
      <path d="M407.16,512.93A122.4,122.4,0,0,0,385.4,479C303,388.24,124.11,454.34,105.66,570.54c-6,37.86,3.68,78.75,28.17,108.45,19,23,45.93,38.91,74.88,45.61,20.22,4.75,40.92,3.79,61.13-.53,20-4.28,40.46-14.72,61.21-12.85l1.12.13a35.11,35.11,0,0,1,3.93.67c.19-15.25,13.75-32.12,23.9-42.7,12.55-13.09,26.92-24.7,37.07-39.74.91-1.33,1.79-2.67,2.64-4.06a118.37,118.37,0,0,0,15-38.21A124.87,124.87,0,0,0,407.16,512.93ZM319.11,649.32l-1.44-2.17a2.6,2.6,0,0,1,1.42,1.34A1.47,1.47,0,0,1,319.11,649.32Z" style="fill: none;stroke: #fff;stroke-linecap: round;stroke-linejoin: round;stroke-width: 15px"/>
      <path d="M336.1,712a32.46,32.46,0,0,1,25.53,33.76" style="fill: none;stroke: #fff;stroke-linecap: round;stroke-linejoin: round;stroke-width: 15px"/>
    </g>
  </g>
  <path d="M713.15,719.72l52.11-3.4" style="fill: none;stroke: #fff;stroke-linecap: round;stroke-linejoin: round;stroke-width: 15px"/>
  <path d="M794.21,710.32c29.39-.53,57.93-17.74,72.11-43.49" style="fill: none;stroke: #fff;stroke-linecap: round;stroke-linejoin: round;stroke-width: 15px"/>
  <g>
    <g>
      <path d="M869.25,711.44c-34,28.31-90.66,32.87-206.76,38.92-89,4.64-138.06-.59-186.53-26a251.83,251.83,0,0,1-29.54-18.21A288.22,288.22,0,0,0,467.2,668c10.49-23.25,26.71-60.25,24.21-107.62a192.63,192.63,0,0,0-15-64.56h0L662.49,336,864.21,509.66q9,7.79,18.1,15.59c32.18,27.62,34.24,64,35.37,75.85C921.47,641.14,902.94,683.35,869.25,711.44Z" style="fill: none;stroke: #fff;stroke-linecap: round;stroke-linejoin: round;stroke-width: 15px"/>
      <path d="M882.3,525.25c-6-5.18-12-10.4-18.1-15.59A176.37,176.37,0,0,1,882.3,525.25Z" style="fill: none;stroke: #fff;stroke-linecap: round;stroke-linejoin: round;stroke-width: 15px"/>
      <path d="M662.5,453.64V335.94l-103-86.53" style="fill: none;stroke: #fff;stroke-linecap: round;stroke-linejoin: round;stroke-width: 15px"/>
      <path d="M662.5,347.33l62.71,106.22" style="fill: none;stroke: #fff;stroke-linecap: round;stroke-linejoin: round;stroke-width: 15px"/>
      <path d="M662.36,347.33,598.13,455.88" style="fill: none;stroke: #fff;stroke-linecap: round;stroke-linejoin: round;stroke-width: 15px"/>
    </g>
    <line x1="765.26" y1="249.41" x2="662.5" y2="335.94" style="fill: none;stroke: #fff;stroke-linecap: round;stroke-linejoin: round;stroke-width: 15px"/>
    <path d="M560.2,248.64c12.81,0,12.81,14,25.62,14s12.81-14,25.61-14,12.81,14,25.62,14,12.81-14,25.62-14,12.81,14,25.62,14,12.82-14,25.63-14,12.81,14,25.62,14,12.81-14,25.63-14" style="fill: none;stroke: #fff;stroke-linecap: round;stroke-linejoin: round;stroke-width: 15px"/>
  </g>
</svg>
