<svg id="Слой_2" data-name="Слой 2" xmlns="http://www.w3.org/2000/svg" viewBox="0 0 1000 1000">
  <title>іконки 2 [Восстановлен]</title>
  <g>
    <g>
      <path d="M910.79,422.36l59.27-7.19-33-20.1,39-33.49L924,366.2l-1.12-38.11-26,34c-3.28,4.29-14,11.93-11.32,18a16,16,0,0,0,3,4C898.51,395,906.66,408.26,910.79,422.36Z" style="fill: none;stroke: #fff;stroke-linecap: round;stroke-linejoin: round;stroke-width: 15px"/>
      <path d="M907.28,416.51c-21.72-53.83-84.73-80.94-141.3-56.93-24,10.18-43.26,27.1-65.23,40.35C631.6,441.61,526.59,454.33,498,454.47c0,0-113.64.54-204.63-54.31l-.38-.23c-22-13.25-41.26-30.17-65.23-40.35C162,331.66,88.14,372.86,79.44,444.27c-7.1,58.36,36.33,110.94,83.81,139.14a634.85,634.85,0,0,0,217.07,79.5c146.09,24.87,317.66,8.28,443-76.78,48.2-32.69,98.91-78.63,90.9-142.6A107.55,107.55,0,0,0,907.28,416.51Z" style="fill: none;stroke: #fff;stroke-linecap: round;stroke-linejoin: round;stroke-width: 15px"/>
      <path d="M114.5,377.28,83,326.54l-4.35,38.37L31.87,343.6,58,388.89,23.88,406l41.81,9.24c5.28,1.17,16.73,7.71,21.08,2.7a15.86,15.86,0,0,0,2.39-4.44C94.81,400,103.45,387,114.5,377.28Z" style="fill: none;stroke: #fff;stroke-linecap: round;stroke-linejoin: round;stroke-width: 15px"/>
      <line x1="293" y1="399.93" x2="258.01" y2="474.07" style="fill: none;stroke: #fff;stroke-linecap: round;stroke-linejoin: round;stroke-width: 15px"/>
      <path d="M393.34,441.52l-23.87,82.3" style="fill: none;stroke: #fff;stroke-linecap: round;stroke-linejoin: round;stroke-width: 15px"/>
      <path d="M499.24,541.85c-.45-30.55-.84-56.84-1.3-87.38" style="fill: none;stroke: #fff;stroke-linecap: round;stroke-linejoin: round;stroke-width: 15px"/>
      <line x1="605.36" y1="437.72" x2="630.3" y2="524.75" style="fill: none;stroke: #fff;stroke-linecap: round;stroke-linejoin: round;stroke-width: 15px"/>
      <line x1="742.08" y1="476.47" x2="700.75" y2="399.93" style="fill: none;stroke: #fff;stroke-linecap: round;stroke-linejoin: round;stroke-width: 15px"/>
    </g>
    <path d="M147.69,521.87a490.88,490.88,0,0,0,194.57,97.29" style="fill: none;stroke: #fff;stroke-linecap: round;stroke-linejoin: round;stroke-width: 15px"/>
    <path d="M371.7,627.65c20.38,7.41,41.48,8,62.86,6" style="fill: none;stroke: #fff;stroke-linecap: round;stroke-linejoin: round;stroke-width: 15px"/>
  </g>
</svg>
