<svg id="Слой_2" data-name="Слой 2" xmlns="http://www.w3.org/2000/svg" viewBox="0 0 1000 1000">
  <title>іконки 2 [Восстановлен]</title>
  <g>
    <path d="M153.46,747.69H70.78C68.4,746,25.93,713.78,30.23,663.37c3.58-42,38.1-78.29,84.32-85.72-33.71-38.46-35.31-94.87-5.41-132.82,26.46-33.58,73-46.89,115.34-32.38-9.42-44.9,12.85-90.24,52.62-109.27,43.2-20.67,97.17-5.55,124.48,36.41,8.13-49.47,49.42-85.77,95.79-87.24,52.65-1.66,100.61,42,103.49,99.39,27.94-55.27,95.4-72.56,139.72-44.64,36.87,23.22,53.35,75,34.3,121.54,39.94-22.73,89.94-12,115.34,22.26,28.19,38,19.29,95.89-22.78,125.26,43.79-2.52,83.88,24.37,97.65,65,12.93,38.11.17,81-32,106.58H852.24" style="fill: none;stroke: #fff;stroke-linecap: round;stroke-linejoin: round;stroke-width: 15px"/>
    <path d="M810.86,630.53C756.13,482.66,611.76,392.28,467.65,409c-116.89,13.56-218.37,95.82-263,211.34" style="fill: none;stroke: #fff;stroke-linecap: round;stroke-linejoin: round;stroke-width: 15px"/>
    <path d="M852.24,747.69H153.46" style="fill: none;stroke: #fff;stroke-linecap: round;stroke-linejoin: round;stroke-width: 15px"/>
  </g>
</svg>
