<svg xmlns="http://www.w3.org/2000/svg" viewBox="0 0 1000 1000">
  <title>іконки 2 [Восстановлен]</title>
  <g id="Слой_8" data-name="Слой 8">
    <path d="M90.52,803.93a104.44,104.44,0,0,1-3.22-18.26,191.15,191.15,0,0,1-11.75-39.25c-1.71-9.25-7.23-28-2.62-46.19,5.41-21.27,20.29-38.78,28.89-59,12.05-28.26,11.73-61.53,28.65-87.17,21-31.81,58.92-35.87,93.77-37.93,45.63-2.7,101.51-15,145.79-1.48,43.15,13.14,69.67,52.35,99.33,83.43,34.22,35.88,66.68,71.4,92.79,114,15.76,25.71,28.83,59.64,11.79,84.53-11.17,16.33-31.77,22.84-50.88,28A1827.67,1827.67,0,0,1,264.63,874c-35.18,4.1-72.76,7.75-107.6-.59-14.91-3.58-26-10.56-35.95-19.13C99.36,835.47,92.43,811,90.52,803.93Z" style="fill: none;stroke: #fff;stroke-linecap: round;stroke-linejoin: round;stroke-width: 15px"/>
    <path d="M147.64,870.52c-5.69-3.45-30-19-39.16-50.83,0,0-8.21-27.82,3.7-58.87,2.69-7,6.21-13.89,11.49-19.24s12.08-9,18.92-12.14c53.73-25,114.59-27.83,173.4-35.06,40.07-4.92,80.1-12.06,120.47-11.41s81.93,9.78,114.08,34.21c8.65,6.57,16.68,14.4,21.37,24.2.3.61.75,1.57,1.3,2.84a66.91,66.91,0,0,1,5.44,26c-.11,16.18-7.31,28.52-10.29,33.12" style="fill: none;stroke: #fff;stroke-linecap: round;stroke-linejoin: round;stroke-width: 15px"/>
    <path d="M296.83,509.41c-7.32-4.43-21.41-14.49-27.35-32-4.88-14.38-1.67-26.56,4-48.75,5.3-20.73,11.79-41.54,23.79-59.26,13.83-20.42,34.21-35.55,55.54-47.95a343.81,343.81,0,0,1,121.93-42.76c12.18-1.81,24.63-3,36.79-1,13.29,2.15,25.71,7.92,38.82,11,28.18,6.56,58,.27,86.42,5.88,19,3.75,36.41,12.62,54.44,19.54,42.19,16.17,88.2,21.82,128.88,41.48,42.21,20.39,75.95,54.49,108.79,87.93,8.1,8.25,16.3,16.64,21.9,26.76C968.67,502.6,956,543.79,967.2,579c1.88,5.94,4.48,11.93,3.85,18.13-.55,5.46-3.56,10.34-6.74,14.82C913.4,683.62,782,693.11,782,693.11L498.62,629.47" style="fill: none;stroke: #fff;stroke-linecap: round;stroke-linejoin: round;stroke-width: 15px"/>
    <path d="M338.22,330.53C335.37,332,307,346.94,303,378.08c-2.29,17.84,1.86,44.1,19.33,51.12,9.88,4,21.22,2.53,31.25,6.11,20.46,7.29,28.85,32.16,47,44.15,19.33,12.79,44.67,8.29,67.84,8.09,53.78-.46,103.91,24.66,153.85,44.62,21.2,8.47,43,16.15,65.64,18.72,17.29,2,34.94.92,52,4.55,14.15,3,27.52,9.2,41.77,11.67,25.82,4.47,52.28-3.62,75.83-15.13s46.45-22.08,58.13-47.62c16.57-36.27-2.4-73.79-5.69-80.05" style="fill: none;stroke: #fff;stroke-linecap: round;stroke-linejoin: round;stroke-width: 15px"/>
    <path d="M582.48,487.86,620.77,501c26,8.91,52,17.84,79,23" style="fill: none;stroke: #fff;stroke-linecap: round;stroke-linejoin: round;stroke-width: 15px"/>
    <path d="M721.67,531.51a20.25,20.25,0,0,1,6.35-.75c17.83.24,34,11.65,51.79,12.41" style="fill: none;stroke: #fff;stroke-linecap: round;stroke-linejoin: round;stroke-width: 16px"/>
    <path d="M108.94,619.55c-7.5,22.15-10.83,40.23-11.44,50.5,0,0-.52,8.73,2.2,22.65a13,13,0,0,0,1.66,4.69c1,1.64,2.56,2.87,3.67,4.45,2.06,2.93,1.44,4.31,3.11,7.44a17,17,0,0,0,5.23,5.79" style="fill: none;stroke: #fff;stroke-linecap: round;stroke-linejoin: round;stroke-width: 15px"/>
    <path d="M165.4,786.39a29.24,29.24,0,0,0-1.83,12.9,43,43,0,0,0,3,12.73A46.57,46.57,0,0,0,182.2,832.6a33.84,33.84,0,0,0,5.62,3.26,28.56,28.56,0,0,0,6.17,1.95,29.56,29.56,0,0,0,6.45.37,53.54,53.54,0,0,0,6.46-.65c8.59-1.44,16.55-5.18,24.22-9.3s15.25-8.72,23.7-11.81A55.29,55.29,0,0,1,268,813.23a51.58,51.58,0,0,1,13.65.31A74.5,74.5,0,0,1,294.75,817c4.22,1.46,8.3,3.08,12.37,4.55a86.6,86.6,0,0,0,12.15,3.57,34.51,34.51,0,0,0,11.85.5c.48-.08,1-.11,1.42-.22l1.38-.37,1.38-.35,1.31-.54a21,21,0,0,0,5-2.63,58.78,58.78,0,0,0,8.95-8.32,76.67,76.67,0,0,1,10.13-9.59,45.89,45.89,0,0,1,12.95-6.81,52,52,0,0,1,29-1.46,35,35,0,0,1,3.6,1l1.78.59,1.72.67c2.26.92,4.37,1.93,6.38,2.92a85.48,85.48,0,0,0,11.11,5,23.73,23.73,0,0,0,2.56.68c.84.19,1.73.25,2.59.4a6.57,6.57,0,0,0,1.23.08l1.21,0,1.09-.1a3.86,3.86,0,0,0,1.05-.15c.33-.08.65-.15,1-.21s.6-.25.91-.35a4.47,4.47,0,0,0,.88-.43,5.14,5.14,0,0,0,.89-.52,23.08,23.08,0,0,0,3.88-3.28c.68-.67,1.46-1.48,2.21-2.25s1.6-1.64,2.53-2.5,1.88-1.7,2.86-2.54c.52-.41,1.07-.81,1.62-1.22l.82-.6.88-.55c.59-.36,1.18-.74,1.77-1.08l1.76-.9a38,38,0,0,1,3.67-1.61,35.38,35.38,0,0,1,7.88-2c1.34-.22,2.61-.27,3.91-.37s2.51-.08,3.67-.06c2.37,0,4.54.1,6.53.09a38.33,38.33,0,0,0,11-1.4l.65-.17.46-.16c.31-.09.57-.23.85-.34a8,8,0,0,0,1.47-.89,8.9,8.9,0,0,0,2.32-2.69,17.81,17.81,0,0,0,2-8.86,28.56,28.56,0,0,0-1.95-10.11,24.41,24.41,0,0,0-1.09-2.39c-.41-.85-.87-1.67-1.34-2.49a43.64,43.64,0,0,0-3.12-4.71A42,42,0,0,0,488,744a32,32,0,0,0-9.39-5l-1.25-.39c-.43-.12-.87-.2-1.29-.3l-1.3-.3c-.42-.07-.84-.11-1.27-.17s-.84-.13-1.26-.16l-1.24-.05a17.82,17.82,0,0,0-2.43.05,21.08,21.08,0,0,0-9.24,3.21,52.65,52.65,0,0,0-8.82,7.39c-2.91,2.93-5.8,6.18-8.91,9.47A78.77,78.77,0,0,1,431,767.35c-1.05.71-2,1.46-3.18,2.1-.55.33-1.1.66-1.66,1l-1.76.88a18.39,18.39,0,0,1-1.81.8l-1.86.72-1.93.57a15.83,15.83,0,0,1-1.95.47l-2,.37c-.66.11-1.33.14-2,.2a29.15,29.15,0,0,1-4,.11,31.09,31.09,0,0,1-7.85-1.25,53.17,53.17,0,0,1-13.18-6.24c-3.92-2.42-7.48-5-11-7.23a39.1,39.1,0,0,0-10.47-5.1,15.36,15.36,0,0,0-5-.52,14.34,14.34,0,0,0-4.82,1.27,19,19,0,0,0-4.39,3.06,44.74,44.74,0,0,0-4.13,4.45c-1.37,1.62-2.75,3.37-4.27,5.11a39.19,39.19,0,0,1-5.1,5,23.47,23.47,0,0,1-6.53,3.83,24.2,24.2,0,0,1-7.35,1.55,32.53,32.53,0,0,1-7.22-.5,49.07,49.07,0,0,1-6.72-1.76c-4.33-1.43-8.4-3.26-12.42-5s-8-3.57-12-5a35,35,0,0,0-12.2-2.42,18.86,18.86,0,0,0-5.92,1.1,17.91,17.91,0,0,0-5.16,3.14c-3.1,2.7-5.19,6.55-7.4,10.33a57.5,57.5,0,0,1-3.6,5.63,21.9,21.9,0,0,1-4.81,4.8,18.54,18.54,0,0,1-12.92,3.29A39.25,39.25,0,0,1,221.86,788c-4-1.93-7.75-4.14-11.57-6.28a119.89,119.89,0,0,0-11.67-6A34.06,34.06,0,0,0,186,772.63a21.1,21.1,0,0,0-6.46.94,24,24,0,0,0-5.88,2.85A21.83,21.83,0,0,0,165.4,786.39Zm0,0a21.82,21.82,0,0,1,8.2-10,24.05,24.05,0,0,1,5.89-2.89,21,21,0,0,1,6.49-1,35.44,35.44,0,0,1,12.76,3,119.58,119.58,0,0,1,11.81,5.8c3.85,2.09,7.68,4.22,11.66,6a56,56,0,0,0,6.07,2.36,29.88,29.88,0,0,0,6.3,1.29,16.81,16.81,0,0,0,11.88-3.39c3.35-2.55,5.52-6.33,7.55-10.17,1-1.92,2-3.89,3.22-5.81a26.73,26.73,0,0,1,4.2-5.42,20.63,20.63,0,0,1,5.83-4,21.55,21.55,0,0,1,6.87-1.63,38.47,38.47,0,0,1,13.57,2c4.31,1.3,8.43,2.94,12.51,4.51a118,118,0,0,0,12.19,4.19,45.8,45.8,0,0,0,6.06,1.22,26.46,26.46,0,0,0,5.89.08,17.22,17.22,0,0,0,10-4.55,32.39,32.39,0,0,0,4-4.43c1.28-1.64,2.52-3.41,3.87-5.22a51.13,51.13,0,0,1,4.51-5.44,27.11,27.11,0,0,1,6.11-4.77,22.63,22.63,0,0,1,7.68-2.53,24.09,24.09,0,0,1,8,.31A48.05,48.05,0,0,1,382,751.37c4,2.23,7.69,4.58,11.33,6.6A43,43,0,0,0,404,762.5a20,20,0,0,0,5.12.55,18.49,18.49,0,0,0,2.6-.2c.43-.07.86-.1,1.27-.19l1.25-.31a6.79,6.79,0,0,0,1.22-.36l1.21-.41,1.18-.55a8.37,8.37,0,0,0,1.16-.58l1.16-.64,1.13-.75c.76-.46,1.48-1.09,2.23-1.63A74.37,74.37,0,0,0,432,749c2.79-3.17,5.61-6.58,8.75-10a62.69,62.69,0,0,1,11-9.73,35.3,35.3,0,0,1,15.24-5.7,33.67,33.67,0,0,1,4.12-.22l2.05,0c.67,0,1.33.14,2,.21s1.33.14,2,.25l1.92.39c.64.14,1.28.25,1.91.42l1.9.54a46.41,46.41,0,0,1,13.85,7,53.57,53.57,0,0,1,10.77,10.65,58.76,58.76,0,0,1,4.18,6.22c.62,1.07,1.23,2.16,1.78,3.28a38.45,38.45,0,0,1,1.65,3.58,43,43,0,0,1,3.06,15.55,32.58,32.58,0,0,1-4,16.42,23.9,23.9,0,0,1-6.3,7.11,22.85,22.85,0,0,1-4.16,2.48c-.73.32-1.46.64-2.2.88-.36.12-.76.26-1.1.36l-.93.25a51.63,51.63,0,0,1-15,1.75c-4.8-.07-8.8-.46-12.14,0a22.24,22.24,0,0,0-4.87,1.12,20.72,20.72,0,0,0-2.37,1l-1.19.55-1,.61-.53.3-.51.36-1,.72c-.69.58-1.38,1.09-2.1,1.77s-1.46,1.36-2.2,2.07-1.56,1.52-2.46,2.37a36.48,36.48,0,0,1-6.33,4.95,13.94,13.94,0,0,1-2,1.06,15.2,15.2,0,0,1-2.11.9c-.74.25-1.47.48-2.21.71s-1.49.29-2.24.42a14.21,14.21,0,0,1-2.21.24c-.73,0-1.46.07-2.18.08l-2.08-.14a16.38,16.38,0,0,1-2-.22c-1.3-.25-2.59-.42-3.88-.76a36.55,36.55,0,0,1-3.76-1.15,85.72,85.72,0,0,1-12.65-6.2c-1.87-1-3.67-2-5.44-2.83l-1.32-.59-1.31-.51a27.19,27.19,0,0,0-2.68-.9,40.94,40.94,0,0,0-22.83.08,37.38,37.38,0,0,0-10.51,4.8,67.93,67.93,0,0,0-9.39,8,65.84,65.84,0,0,1-10.85,8.89,28.69,28.69,0,0,1-6.8,3.12l-1.77.59-1.83.37-1.82.37c-.61.1-1.23.12-1.84.18a41.74,41.74,0,0,1-14.23-1.38,91.65,91.65,0,0,1-12.82-4.57c-8.17-3.45-15.86-7.47-24.1-9.1a48.45,48.45,0,0,0-25,1.51c-8.19,2.55-15.93,6.69-23.8,10.58s-16.16,7.36-25,8.62a52.24,52.24,0,0,1-6.62.49,30.21,30.21,0,0,1-6.63-.56,31.66,31.66,0,0,1-12-5.58,47.56,47.56,0,0,1-15.46-20.95,43,43,0,0,1-2.92-12.78A29.24,29.24,0,0,1,165.4,786.39Z" style="fill: #fff"/>
  </g>
</svg>
